<svg width="48" height="50" viewBox="0 0 48 50" fill="none" xmlns="http://www.w3.org/2000/svg">
<path d="M47.1053 13.1488L35.6105 1.4134C35.3269 1.12382 34.9901 0.894108 34.6196 0.737386C34.249 0.580664 33.8518 0.5 33.4507 0.5C33.0496 0.5 32.6524 0.580664 32.2818 0.737386C31.9112 0.894108 31.5745 1.12382 31.2909 1.4134L0.894676 32.4412C0.611031 32.7308 0.386029 33.0746 0.23252 33.4529C0.0790104 33.8312 0 34.2367 0 34.6462C0 35.0557 0.0790104 35.4612 0.23252 35.8396C0.386029 36.2179 0.611031 36.5617 0.894676 36.8512L12.3895 48.5866C12.6731 48.8762 13.0099 49.1059 13.3804 49.2626C13.751 49.4193 14.1482 49.5 14.5493 49.5C14.9504 49.5 15.3476 49.4193 15.7182 49.2626C16.0888 49.1059 16.4255 48.8762 16.7091 48.5866L47.1053 17.5587C47.389 17.2692 47.614 16.9254 47.7675 16.5471C47.921 16.1688 48 15.7633 48 15.3538C48 14.9443 47.921 14.5388 47.7675 14.1604C47.614 13.7821 47.389 13.4383 47.1053 13.1488ZM45.2531 15.6678L14.8591 46.6957C14.8186 46.7371 14.7705 46.7699 14.7175 46.7924C14.6645 46.8148 14.6077 46.8263 14.5504 46.8263C14.4931 46.8263 14.4363 46.8148 14.3833 46.7924C14.3303 46.7699 14.2822 46.7371 14.2417 46.6957L2.74685 34.9625C2.70629 34.9211 2.6741 34.872 2.65215 34.8179C2.63019 34.7638 2.61889 34.7059 2.61889 34.6473C2.61889 34.5888 2.63019 34.5308 2.65215 34.4768C2.6741 34.4227 2.70629 34.3736 2.74685 34.3322L10.0378 26.8887L16.0939 33.0716C16.2137 33.2029 16.3582 33.3082 16.5188 33.3812C16.6794 33.4542 16.8527 33.4935 17.0284 33.4967C17.2042 33.4998 17.3788 33.4668 17.5418 33.3996C17.7048 33.3324 17.8528 33.2324 17.9771 33.1055C18.1014 32.9786 18.1994 32.8274 18.2652 32.661C18.3311 32.4946 18.3634 32.3164 18.3603 32.137C18.3572 31.9575 18.3187 31.7806 18.2472 31.6167C18.1756 31.4527 18.0725 31.3052 17.9439 31.1828L11.8878 25L17.0189 19.7615L23.075 25.9444C23.3231 26.1804 23.6513 26.3089 23.9904 26.3028C24.3295 26.2967 24.6531 26.1565 24.8929 25.9116C25.1327 25.6668 25.2701 25.3364 25.2761 24.9902C25.2821 24.644 25.1562 24.309 24.925 24.0556L18.8689 17.8728L24 12.6365L30.0561 18.8171C30.3043 19.0532 30.6325 19.1817 30.9716 19.1756C31.3107 19.1695 31.6342 19.0292 31.874 18.7844C32.1139 18.5396 32.2512 18.2092 32.2572 17.863C32.2632 17.5168 32.1373 17.1818 31.9061 16.9284L25.8522 10.7456L33.1409 3.30434C33.1814 3.26292 33.2295 3.23006 33.2825 3.20765C33.3355 3.18523 33.3923 3.17369 33.4496 3.17369C33.5069 3.17369 33.5637 3.18523 33.6167 3.20765C33.6697 3.23006 33.7178 3.26292 33.7583 3.30434L45.2531 15.0375C45.2937 15.0789 45.3259 15.128 45.3479 15.1821C45.3698 15.2362 45.3811 15.2941 45.3811 15.3527C45.3811 15.4112 45.3698 15.4692 45.3479 15.5232C45.3259 15.5773 45.2937 15.6264 45.2531 15.6678Z" fill="black"/>
</svg>
