<svg width="43" height="44" viewBox="0 0 43 44" fill="none" xmlns="http://www.w3.org/2000/svg">
<path d="M39.9286 0.5H3.07143C1.38214 0.5 0 1.88214 0 3.57143V40.4286C0 42.1179 1.38214 43.5 3.07143 43.5H26.1071V40.4286C26.1071 36.1286 29.4857 32.75 33.7857 32.75V29.6786C27.7964 29.6786 23.0357 34.4393 23.0357 40.4286H18.4286V34.2857H15.3571V40.4286H3.07143V3.57143H15.3571V25.0714H18.4286V17.3929H24.5714V14.3214H18.4286V3.57143H39.9286V14.3214H33.7857V17.3929H39.9286V40.4286H33.7857V43.5H39.9286C41.6179 43.5 43 42.1179 43 40.4286V3.57143C43 1.88214 41.6179 0.5 39.9286 0.5Z" fill="black"/>
</svg>
