<svg width="43" height="42" viewBox="0 0 43 42" fill="none" xmlns="http://www.w3.org/2000/svg">
<path d="M6.9875 0.5C5.1343 0.5 3.357 1.23888 2.04659 2.55411C0.736181 3.86933 0 5.65315 0 7.51316V21.5395C0 23.3995 0.736181 25.1833 2.04659 26.4985C3.357 27.8137 5.1343 28.5526 6.9875 28.5526H11.81C11.7264 29.4387 11.3165 30.2615 10.6604 30.8602C10.0042 31.4588 9.14917 31.7902 8.26245 31.7895H2.6875C2.25984 31.7895 1.84969 31.96 1.54729 32.2635C1.24489 32.567 1.075 32.9787 1.075 33.4079V39.8816C1.075 40.7749 1.7974 41.5 2.6875 41.5H9.1375C12.4162 41.5 15.5607 40.1927 17.8791 37.8658C20.1975 35.5389 21.5 32.3829 21.5 29.0921V28.5526H25.2625C26.9982 28.5528 28.6719 27.9047 29.9576 26.7343C31.2433 25.564 32.049 23.9552 32.2178 22.2214L40.5597 27.2428C40.8044 27.3897 41.0834 27.4688 41.3685 27.4722C41.6535 27.4756 41.9343 27.4031 42.1823 27.262C42.4303 27.121 42.6367 26.9165 42.7803 26.6694C42.924 26.4223 42.9998 26.1414 43 25.8553V3.19737C43 2.91095 42.9242 2.62966 42.7805 2.38223C42.6367 2.1348 42.4301 1.9301 42.1818 1.78901C41.9334 1.64792 41.6522 1.57551 41.3669 1.57917C41.0815 1.58283 40.8023 1.66243 40.5576 1.80984L32.2156 6.83126C32.0469 5.09779 31.2415 3.48935 29.9563 2.31905C28.671 1.14875 26.9979 0.500322 25.2625 0.5H6.9875ZM32.25 10.5882L39.775 6.05658V22.9961L32.25 18.4645V10.5882ZM9.1375 38.2632H4.3V35.0263H8.2646C11.8981 35.0263 14.8651 32.1563 15.0414 28.5526H18.275V29.0921C18.275 30.2965 18.0387 31.489 17.5795 32.6017C17.1202 33.7144 16.4472 34.7254 15.5987 35.577C14.7502 36.4286 13.7429 37.1042 12.6343 37.5651C11.5257 38.0259 10.3375 38.2632 9.1375 38.2632ZM3.225 7.51316C3.225 5.42863 4.9106 3.73684 6.9875 3.73684H25.2625C27.3394 3.73684 29.025 5.42863 29.025 7.51316V21.5395C29.025 22.541 28.6286 23.5015 27.923 24.2097C27.2174 24.9179 26.2604 25.3158 25.2625 25.3158H6.9875C5.98962 25.3158 5.03262 24.9179 4.32701 24.2097C3.62141 23.5015 3.225 22.541 3.225 21.5395V7.51316Z" fill="black"/>
</svg>
