<svg width="44" height="38" viewBox="0 0 44 38" fill="none" xmlns="http://www.w3.org/2000/svg">
<path d="M42.5333 16.0682H44V15.6618L43.7917 15.314L42.5333 16.0682ZM1.46667 16.0682L0.208267 15.314L0 15.6677V16.0711L1.46667 16.0682ZM10.2667 30.6923V29.2308H8.8V30.6923H10.2667ZM33.7333 30.6923H35.2V29.2308H33.7333V30.6923ZM41.0667 16.0682V33.6154H44V16.0682H41.0667ZM2.72507 16.8194L8.96133 6.47169L6.44453 4.96338L0.208267 15.314L2.72507 16.8194ZM15.2475 2.92308H28.7525V1.19114e-07H15.2475V2.92308ZM35.0387 6.46877L41.2749 16.8194L43.7917 15.314L37.5555 4.96338L35.0387 6.46877ZM7.33333 35.0769H4.4V38H7.33333V35.0769ZM8.8 30.6923V33.6154H11.7333V30.6923H8.8ZM39.6 35.0769H36.6667V38H39.6V35.0769ZM35.2 33.6154V30.6923H32.2667V33.6154H35.2ZM33.7333 29.2308H10.2667V32.1538H33.7333V29.2308ZM2.93333 33.6154V16.0682L0 16.0711V33.6154H2.93333ZM36.6667 35.0769C36.2777 35.0769 35.9046 34.9229 35.6296 34.6488C35.3545 34.3748 35.2 34.003 35.2 33.6154H32.2667C32.2667 34.7783 32.7302 35.8935 33.5554 36.7158C34.3806 37.5381 35.4997 38 36.6667 38V35.0769ZM7.33333 38C8.50029 38 9.61944 37.5381 10.4446 36.7158C11.2698 35.8935 11.7333 34.7783 11.7333 33.6154H8.8C8.8 34.003 8.64548 34.3748 8.37042 34.6488C8.09537 34.9229 7.72232 35.0769 7.33333 35.0769V38ZM4.4 35.0769C4.01102 35.0769 3.63796 34.9229 3.36291 34.6488C3.08786 34.3748 2.93333 34.003 2.93333 33.6154H0C0 34.7783 0.46357 35.8935 1.28873 36.7158C2.11389 37.5381 3.23305 38 4.4 38V35.0769ZM28.7525 2.92308C30.0183 2.92322 31.2625 3.24984 32.3641 3.87118C33.4656 4.49251 34.387 5.3874 35.0387 6.46877L37.5555 4.96338C36.6429 3.44923 35.3525 2.19629 33.8099 1.32651C32.2673 0.456726 30.525 -0.000269364 28.7525 1.19114e-07V2.92308ZM8.96133 6.47169C9.61296 5.39032 10.5344 4.49251 11.6359 3.87118C12.7375 3.24984 13.9817 2.92322 15.2475 2.92308V1.19114e-07C13.4755 0.000235206 11.7338 0.45747 10.1917 1.32723C8.64968 2.19699 7.35683 3.44966 6.44453 4.96338L8.96133 6.47169ZM41.0667 33.6154C41.0667 34.003 40.9121 34.3748 40.6371 34.6488C40.362 34.9229 39.989 35.0769 39.6 35.0769V38C40.767 38 41.8861 37.5381 42.7113 36.7158C43.5364 35.8935 44 34.7783 44 33.6154H41.0667ZM5.86667 26.3077H14.6667V23.3846H5.86667V26.3077ZM38.1333 23.3846H29.3333V26.3077H38.1333V23.3846ZM8.8 17.5385H35.2V14.6154H8.8V17.5385Z" fill="black"/>
</svg>
