<svg width="48" height="48" viewBox="0 0 48 48" fill="none" xmlns="http://www.w3.org/2000/svg">
<g clip-path="url(#clip0_3_1830)">
<path d="M40 24L44 24C44 21.3736 43.4827 18.7728 42.4776 16.3463C41.4725 13.9198 39.9993 11.715 38.1421 9.85786C34.3914 6.10714 29.3043 4 24 4L24 8C28.2435 8 32.3131 9.68571 35.3137 12.6863C38.3143 15.6869 40 19.7565 40 24Z" fill="#333333"/>
<path d="M8.0938 25.7305L4.11727 26.1631C4.40132 28.7741 5.19687 31.3037 6.45849 33.6072C7.72012 35.9108 9.42312 37.9433 11.4702 39.5888C15.6046 42.9119 20.8897 44.4565 26.163 43.8828L25.7304 39.9063C21.5118 40.3652 17.2837 39.1295 13.9762 36.471C10.6687 33.8126 8.55274 29.9491 8.0938 25.7305Z" fill="#333333"/>
</g>
<defs>
<clipPath id="clip0_3_1830">
<rect width="48" height="48" fill="white" transform="translate(48) rotate(90)"/>
</clipPath>
</defs>
</svg>
