<svg width="233" height="26" viewBox="0 0 233 26" fill="none" xmlns="http://www.w3.org/2000/svg">
<path d="M129.551 21.0443H134.397V0.469272H129.551V8.32548H115.019V0.461182H110.181V21.0281H115.019V13.1638H129.551V21.0443Z" fill="#333333"/>
<path d="M47.8575 0.525908L33.3264 14.3855V0.461182H28.48V21.0443H33.2617L33.3264 20.9876L47.8575 7.0714V21.0443H52.6959V0.461182H47.9465L47.8575 0.525908Z" fill="#333333"/>
<path d="M13.9082 16.1979H4.84641V5.29954H13.9162C16.926 5.29954 19.3614 7.73488 19.3614 10.7447C19.3614 13.7545 16.926 16.1898 13.9162 16.1898M0 0.453125V25.8826H4.84641V21.0443H14.0781C19.7659 21.0443 24.3696 16.4325 24.3696 10.7528C24.3696 5.07299 19.7659 0.453125 14.0781 0.453125H0Z" fill="#333333"/>
<path d="M56.7573 10.7447C56.7573 16.4325 61.3691 21.0362 67.0489 21.0362H79.9052V16.1898H67.2188C64.209 16.1898 61.7736 13.7545 61.7736 10.7447C61.7736 7.73488 64.209 5.29954 67.2188 5.29954H79.9052V0.453125H67.0489C61.361 0.453125 56.7573 5.0649 56.7573 10.7447Z" fill="#333333"/>
<path d="M95.0997 0L82.9473 21.0443H107.244L95.0997 0Z" fill="#EF4123"/>
<path d="M158.605 0.509766H159.406V3.43056H163.573V0.509766H164.358V7.28989H163.573V4.1021H159.406V7.28989H158.605V0.509766Z" fill="#333333"/>
<path d="M171.388 4.36106V3.81088H170.879C169.309 3.81088 167.399 3.99697 167.399 5.41287C167.399 6.47277 168.298 6.82067 169.099 6.82067C170.668 6.82067 171.38 5.59896 171.38 4.36106M166.574 5.45332C166.574 3.46298 168.775 3.1798 170.87 3.1798H171.38V2.87234C171.38 1.59399 170.684 0.979088 169.463 0.979088C168.678 0.979088 167.933 1.30272 167.44 1.78008L167.003 1.25418C167.569 0.704 168.5 0.32373 169.535 0.32373C171.032 0.32373 172.141 1.12472 172.141 2.78335V5.75268C172.141 6.27859 172.181 6.90158 172.254 7.28185H171.542C171.485 6.93395 171.429 6.39186 171.429 6.02777H171.396C170.846 7.01485 169.997 7.46794 168.904 7.46794C167.812 7.46794 166.574 6.90158 166.574 5.44523" fill="#333333"/>
<path d="M177.473 10.6962L177.578 9.98417C177.764 10.057 177.998 10.0974 178.249 10.0974C178.961 10.0974 179.293 9.57154 179.576 8.85955L180.159 7.33038L177.319 0.501709H178.209L180.563 6.47275L182.772 0.501709H183.63L180.256 9.17509C179.859 10.1622 179.342 10.7933 178.274 10.7933C178.015 10.7933 177.723 10.7528 177.473 10.6881" fill="#333333"/>
<path d="M188.703 0.987145C187.117 0.987145 185.968 2.2655 185.968 3.89985C185.968 5.5342 187.117 6.79637 188.703 6.79637C190.402 6.79637 191.405 5.50183 191.405 3.89985C191.405 2.29786 190.402 0.987145 188.703 0.987145ZM186.041 10.7852H185.256V0.509786H186.041V1.86096H186.081C186.664 0.809147 187.707 0.331787 188.775 0.331787C190.855 0.331787 192.254 1.87714 192.254 3.89985C192.254 5.92256 190.887 7.48409 188.808 7.48409C187.748 7.48409 186.639 7.00673 186.089 5.98728H186.049V10.7932L186.041 10.7852Z" fill="#333333"/>
<path d="M200.272 3.89985C200.272 2.28168 199.213 0.987145 197.505 0.987145C195.798 0.987145 194.754 2.28168 194.754 3.89985C194.754 5.51801 195.814 6.79637 197.505 6.79637C199.196 6.79637 200.272 5.51801 200.272 3.89985ZM193.929 3.89985C193.929 1.83668 195.41 0.331787 197.513 0.331787C199.617 0.331787 201.106 1.82859 201.106 3.89985C201.106 5.9711 199.625 7.48409 197.513 7.48409C195.402 7.48409 193.929 5.95492 193.929 3.89985Z" fill="#333333"/>
<path d="M206.316 6.6022C207.263 6.6022 208.031 6.2543 208.031 5.3643C208.031 4.47431 207.319 4.08595 206.413 4.08595H204.115V6.6022H206.316ZM206.332 3.43059C206.988 3.43059 207.74 3.12314 207.74 2.29788C207.74 1.47261 207.028 1.17325 206.195 1.17325H204.115V3.43059H206.324H206.332ZM203.323 0.501709H206.365C207.4 0.501709 208.517 0.881979 208.517 2.20888C208.517 2.99369 207.975 3.53577 207.279 3.6895V3.70568C208.096 3.80277 208.849 4.37722 208.849 5.42094C208.849 6.64266 207.813 7.28183 206.429 7.28183H203.314V0.5098L203.323 0.501709Z" fill="#333333"/>
<path d="M216.317 3.43058C216.26 2.00659 215.37 0.987145 213.882 0.987145C212.393 0.987145 211.422 2.31404 211.365 3.43058H216.317ZM210.54 3.88367C210.54 1.82859 212.013 0.331787 213.906 0.331787C216.034 0.331787 217.11 1.87714 217.11 3.64903V4.05357H211.357C211.39 5.49374 212.401 6.78828 214.003 6.78828C215.022 6.78828 215.702 6.38373 216.333 5.63938L216.859 6.0601C216.098 7.03909 215.111 7.46791 213.979 7.46791C211.996 7.46791 210.54 5.93874 210.54 3.87557" fill="#333333"/>
<path d="M219.311 0.509766H220.112V3.43056H224.278V0.509766H225.063V7.28989H224.278V4.1021H220.112V7.28989H219.311V0.509766Z" fill="#333333"/>
<path d="M230.516 6.6022C231.705 6.6022 232.191 6.09248 232.191 5.26721C232.191 4.44195 231.738 3.84323 230.516 3.84323H228.607V6.61029H230.516V6.6022ZM227.806 0.501709H228.607V3.16359H230.427C232.118 3.16359 233 3.94841 233 5.25912C233 6.56984 232.142 7.28183 230.427 7.28183H227.806V0.5098V0.501709Z" fill="#333333"/>
<path d="M162.116 19.5232C162.723 19.5232 163.225 19.2643 163.225 18.7061C163.225 18.1073 162.683 17.9051 162.092 17.9051H160.943V19.5232H162.125H162.116ZM162.1 16.6672C162.569 16.6672 163.014 16.4487 163.014 15.9147C163.014 15.405 162.578 15.2027 161.995 15.2027H160.935V16.6753H162.1V16.6672ZM158.605 13.7383H162.618C163.783 13.7383 165.28 14.0457 165.28 15.6477C165.28 16.4083 164.811 16.9746 164.131 17.1769V17.2093C164.916 17.3549 165.604 17.9536 165.604 18.9164C165.604 20.3566 164.333 20.9958 162.812 20.9958H158.605V13.7464V13.7383Z" fill="#333333"/>
<path d="M174.981 13.7463H177.383V20.9957H174.981V13.7463ZM170.539 19.4261C171.21 19.4261 171.631 19.1348 171.631 18.5199C171.631 17.905 171.234 17.6623 170.539 17.6623H169.519V19.4261H170.539ZM167.116 13.7463H169.519V16.117H170.992C172.634 16.117 173.993 16.7723 173.993 18.5361C173.993 20.2999 172.642 20.9957 170.992 20.9957H167.124V13.7463H167.116Z" fill="#333333"/>
<path d="M179.245 13.7463H181.648V19.1429H183.703V13.7463H186.106V19.1429H188.153V13.7463H190.556V20.9957H179.245V13.7463Z" fill="#333333"/>
<path d="M197.408 16.5377C197.408 15.7852 196.931 15.1542 195.984 15.1542C195.038 15.1542 194.399 15.7933 194.342 16.5377H197.416H197.408ZM192.052 17.3953C192.052 15.0247 193.768 13.5117 195.968 13.5117C198.169 13.5117 199.609 14.9843 199.609 17.46C199.609 17.6461 199.609 17.8565 199.593 18.0264H194.342C194.415 18.8274 195.216 19.3938 196.073 19.3938C196.826 19.3938 197.352 19.0701 197.675 18.6332L199.334 19.6769C198.646 20.664 197.514 21.2223 196.041 21.2223C193.857 21.2223 192.052 19.8388 192.052 17.3953Z" fill="#333333"/>
</svg>
