<svg width="96" height="96" viewBox="0 0 96 96" fill="none" xmlns="http://www.w3.org/2000/svg">
<path d="M40.3331 66.8247L21.8182 48.3055L27.9884 42.1353L40.3331 54.4756L65.0138 29.7905L71.1884 35.9651L40.3331 66.816V66.8247Z" fill="#E4370E"/>
<path fill-rule="evenodd" clip-rule="evenodd" d="M0 48C0 21.4909 21.4909 0 48 0C74.5091 0 96 21.4909 96 48C96 74.5091 74.5091 96 48 96C21.4909 96 0 74.5091 0 48ZM48 87.2727C42.8426 87.2727 37.7358 86.2569 32.971 84.2833C28.2062 82.3096 23.8768 79.4168 20.23 75.77C16.5832 72.1232 13.6904 67.7938 11.7167 63.029C9.74309 58.2642 8.72727 53.1574 8.72727 48C8.72727 42.8426 9.74309 37.7358 11.7167 32.971C13.6904 28.2062 16.5832 23.8768 20.23 20.23C23.8768 16.5832 28.2062 13.6904 32.971 11.7167C37.7358 9.74309 42.8426 8.72727 48 8.72727C58.4158 8.72727 68.4049 12.8649 75.77 20.23C83.1351 27.5951 87.2727 37.5842 87.2727 48C87.2727 58.4158 83.1351 68.4049 75.77 75.77C68.4049 83.1351 58.4158 87.2727 48 87.2727Z" fill="#E4370E"/>
</svg>
