<svg width="96" height="96" viewBox="0 0 96 96" fill="none" xmlns="http://www.w3.org/2000/svg">
<path fill-rule="evenodd" clip-rule="evenodd" d="M89.0636 48C89.0636 70.6788 70.6788 89.0636 48 89.0636C25.3212 89.0636 6.93642 70.6788 6.93642 48C6.93642 25.3212 25.3212 6.93642 48 6.93642C70.6788 6.93642 89.0636 25.3212 89.0636 48ZM96 48C96 74.5097 74.5097 96 48 96C21.4903 96 0 74.5097 0 48C0 21.4903 21.4903 0 48 0C74.5097 0 96 21.4903 96 48ZM28.7235 36.1259C26.6794 34.0818 26.6794 30.7678 28.7235 28.7238C30.7675 26.6797 34.0815 26.6797 36.1255 28.7238L47.9997 40.5979L59.8738 28.7238C61.9179 26.6797 65.2319 26.6797 67.2759 28.7238C69.3199 30.7678 69.3199 34.0818 67.2759 36.1259L55.4017 48L67.2759 59.8742C69.3199 61.9182 69.3199 65.2322 67.2759 67.2762C65.2319 69.3203 61.9179 69.3203 59.8738 67.2762L47.9997 55.4021L36.1255 67.2762C34.0815 69.3203 30.7675 69.3203 28.7235 67.2762C26.6794 65.2322 26.6794 61.9182 28.7235 59.8742L40.5976 48L28.7235 36.1259Z" fill="#E4370E"/>
</svg>
