<svg width="96" height="96" viewBox="0 0 96 96" fill="none" xmlns="http://www.w3.org/2000/svg">
<path fill-rule="evenodd" clip-rule="evenodd" d="M48 89.0636C70.6788 89.0636 89.0636 70.6788 89.0636 48C89.0636 25.3212 70.6788 6.93642 48 6.93642C25.3212 6.93642 6.93642 25.3212 6.93642 48C6.93642 70.6788 25.3212 89.0636 48 89.0636ZM48 96C74.5097 96 96 74.5097 96 48C96 21.4903 74.5097 0 48 0C21.4903 0 0 21.4903 0 48C0 74.5097 21.4903 96 48 96Z" fill="#E4370E"/>
<path fill-rule="evenodd" clip-rule="evenodd" d="M23.054 47.3543L45.9554 24.0716C47.3607 22.6428 49.6393 22.6428 51.0446 24.0716L73.946 47.3543C75.3513 48.7831 75.3513 51.0995 73.946 52.5283C72.5406 53.957 70.2621 53.957 68.8568 52.5283L52.0986 35.491L52.0986 73H44.9014V35.491L28.1432 52.5283C26.7379 53.957 24.4594 53.957 23.054 52.5283C21.6487 51.0995 21.6487 48.7831 23.054 47.3543Z" fill="#E4370E"/>
</svg>
