<svg width="336" height="336" viewBox="0 0 336 336" fill="none" xmlns="http://www.w3.org/2000/svg">
<rect width="336" height="336" rx="10" fill="#F0F0F0"/>
<path d="M112.306 20.3636H101.818V30.8509H112.306V20.3636Z" fill="#333333"/>
<path d="M153.033 20.3636H142.545V30.8509H153.033V20.3636Z" fill="#333333"/>
<path d="M193.76 20.3636H183.273V30.8509H193.76V20.3636Z" fill="#333333"/>
<path d="M112.306 30.5455H101.818V41.0327H112.306V30.5455Z" fill="#333333"/>
<path d="M132.669 30.5455H122.182V41.0327H132.669V30.5455Z" fill="#333333"/>
<path d="M153.033 30.5455H142.545V41.0327H153.033V30.5455Z" fill="#333333"/>
<path d="M163.215 30.5455H152.728V41.0327H163.215V30.5455Z" fill="#333333"/>
<path d="M173.396 30.5455H162.909V41.0327H173.396V30.5455Z" fill="#333333"/>
<path d="M183.578 30.5455H173.091V41.0327H183.578V30.5455Z" fill="#333333"/>
<path d="M203.942 30.5455H193.455V41.0327H203.942V30.5455Z" fill="#333333"/>
<path d="M234.487 30.5455H224V41.0327H234.487V30.5455Z" fill="#333333"/>
<path d="M112.306 40.7273H101.818V51.2146H112.306V40.7273Z" fill="#333333"/>
<path d="M122.487 40.7273H112V51.2146H122.487V40.7273Z" fill="#333333"/>
<path d="M142.851 40.7273H132.364V51.2146H142.851V40.7273Z" fill="#333333"/>
<path d="M153.033 40.7273H142.545V51.2146H153.033V40.7273Z" fill="#333333"/>
<path d="M183.578 40.7273H173.091V51.2146H183.578V40.7273Z" fill="#333333"/>
<path d="M132.669 50.9091H122.182V61.3964H132.669V50.9091Z" fill="#333333"/>
<path d="M153.033 50.9091H142.545V61.3964H153.033V50.9091Z" fill="#333333"/>
<path d="M173.396 50.9091H162.909V61.3964H173.396V50.9091Z" fill="#333333"/>
<path d="M183.578 50.9091H173.091V61.3964H183.578V50.9091Z" fill="#333333"/>
<path d="M203.942 50.9091H193.455V61.3964H203.942V50.9091Z" fill="#333333"/>
<path d="M122.487 61.0909H112V71.5782H122.487V61.0909Z" fill="#333333"/>
<path d="M132.669 61.0909H122.182V71.5782H132.669V61.0909Z" fill="#333333"/>
<path d="M142.851 61.0909H132.364V71.5782H142.851V61.0909Z" fill="#333333"/>
<path d="M173.396 61.0909H162.909V71.5782H173.396V61.0909Z" fill="#333333"/>
<path d="M183.578 61.0909H173.091V71.5782H183.578V61.0909Z" fill="#333333"/>
<path d="M203.942 61.0909H193.455V71.5782H203.942V61.0909Z" fill="#333333"/>
<path d="M214.124 61.0909H203.637V71.5782H214.124V61.0909Z" fill="#333333"/>
<path d="M224.306 61.0909H213.818V71.5782H224.306V61.0909Z" fill="#333333"/>
<path d="M234.487 61.0909H224V71.5782H234.487V61.0909Z" fill="#333333"/>
<path d="M112.306 71.2727H101.818V81.76H112.306V71.2727Z" fill="#333333"/>
<path d="M153.033 71.2727H142.545V81.76H153.033V71.2727Z" fill="#333333"/>
<path d="M173.396 71.2727H162.909V81.76H173.396V71.2727Z" fill="#333333"/>
<path d="M183.578 71.2727H173.091V81.76H183.578V71.2727Z" fill="#333333"/>
<path d="M203.942 71.2727H193.455V81.76H203.942V71.2727Z" fill="#333333"/>
<path d="M234.487 71.2727H224V81.76H234.487V71.2727Z" fill="#333333"/>
<path d="M112.306 81.4546H101.818V91.9418H112.306V81.4546Z" fill="#333333"/>
<path d="M132.669 81.4546H122.182V91.9418H132.669V81.4546Z" fill="#333333"/>
<path d="M153.033 81.4546H142.545V91.9418H153.033V81.4546Z" fill="#333333"/>
<path d="M173.396 81.4546H162.909V91.9418H173.396V81.4546Z" fill="#333333"/>
<path d="M193.76 81.4546H183.273V91.9418H193.76V81.4546Z" fill="#333333"/>
<path d="M214.124 81.4546H203.637V91.9418H214.124V81.4546Z" fill="#333333"/>
<path d="M234.487 81.4546H224V91.9418H234.487V81.4546Z" fill="#333333"/>
<path d="M112.306 91.6364H101.818V102.124H112.306V91.6364Z" fill="#333333"/>
<path d="M122.487 91.6364H112V102.124H122.487V91.6364Z" fill="#333333"/>
<path d="M153.033 91.6364H142.545V102.124H153.033V91.6364Z" fill="#333333"/>
<path d="M173.396 91.6364H162.909V102.124H173.396V91.6364Z" fill="#333333"/>
<path d="M193.76 91.6364H183.273V102.124H193.76V91.6364Z" fill="#333333"/>
<path d="M203.942 91.6364H193.455V102.124H203.942V91.6364Z" fill="#333333"/>
<path d="M214.124 91.6364H203.637V102.124H214.124V91.6364Z" fill="#333333"/>
<path d="M224.306 91.6364H213.818V102.124H224.306V91.6364Z" fill="#333333"/>
<path d="M234.487 91.6364H224V102.124H234.487V91.6364Z" fill="#333333"/>
<path d="M51.2148 101.818H40.7275V112.305H51.2148V101.818Z" fill="#333333"/>
<path d="M61.3965 101.818H50.9092V112.305H61.3965V101.818Z" fill="#333333"/>
<path d="M71.5781 101.818H61.0908V112.305H71.5781V101.818Z" fill="#333333"/>
<path d="M91.9419 101.818H81.4546V112.305H91.9419V101.818Z" fill="#333333"/>
<path d="M112.306 101.818H101.818V112.305H112.306V101.818Z" fill="#333333"/>
<path d="M122.487 101.818H112V112.305H122.487V101.818Z" fill="#333333"/>
<path d="M132.669 101.818H122.182V112.305H132.669V101.818Z" fill="#333333"/>
<path d="M142.851 101.818H132.364V112.305H142.851V101.818Z" fill="#333333"/>
<path d="M153.033 101.818H142.545V112.305H153.033V101.818Z" fill="#333333"/>
<path d="M163.215 101.818H152.728V112.305H163.215V101.818Z" fill="#333333"/>
<path d="M183.578 101.818H173.091V112.305H183.578V101.818Z" fill="#333333"/>
<path d="M193.76 101.818H183.273V112.305H193.76V101.818Z" fill="#333333"/>
<path d="M224.306 101.818H213.818V112.305H224.306V101.818Z" fill="#333333"/>
<path d="M244.669 101.818H234.182V112.305H244.669V101.818Z" fill="#333333"/>
<path d="M254.851 101.818H244.364V112.305H254.851V101.818Z" fill="#333333"/>
<path d="M265.033 101.818H254.545V112.305H265.033V101.818Z" fill="#333333"/>
<path d="M295.578 101.818H285.091V112.305H295.578V101.818Z" fill="#333333"/>
<path d="M305.76 101.818H295.273V112.305H305.76V101.818Z" fill="#333333"/>
<path d="M315.942 101.818H305.455V112.305H315.942V101.818Z" fill="#333333"/>
<path d="M61.3965 112H50.9092V122.487H61.3965V112Z" fill="#333333"/>
<path d="M81.7602 112H71.2729V122.487H81.7602V112Z" fill="#333333"/>
<path d="M102.124 112H91.6367V122.487H102.124V112Z" fill="#333333"/>
<path d="M122.487 112H112V122.487H122.487V112Z" fill="#333333"/>
<path d="M132.669 112H122.182V122.487H132.669V112Z" fill="#333333"/>
<path d="M142.851 112H132.364V122.487H142.851V112Z" fill="#333333"/>
<path d="M153.033 112H142.545V122.487H153.033V112Z" fill="#333333"/>
<path d="M173.396 112H162.909V122.487H173.396V112Z" fill="#333333"/>
<path d="M183.578 112H173.091V122.487H183.578V112Z" fill="#333333"/>
<path d="M203.942 112H193.455V122.487H203.942V112Z" fill="#333333"/>
<path d="M214.124 112H203.637V122.487H214.124V112Z" fill="#333333"/>
<path d="M234.487 112H224V122.487H234.487V112Z" fill="#333333"/>
<path d="M244.669 112H234.182V122.487H244.669V112Z" fill="#333333"/>
<path d="M265.033 112H254.545V122.487H265.033V112Z" fill="#333333"/>
<path d="M285.396 112H274.909V122.487H285.396V112Z" fill="#333333"/>
<path d="M295.578 112H285.091V122.487H295.578V112Z" fill="#333333"/>
<path d="M315.942 112H305.455V122.487H315.942V112Z" fill="#333333"/>
<path d="M41.0327 122.182H30.5454V132.669H41.0327V122.182Z" fill="#333333"/>
<path d="M71.5781 122.182H61.0908V132.669H71.5781V122.182Z" fill="#333333"/>
<path d="M91.9419 122.182H81.4546V132.669H91.9419V122.182Z" fill="#333333"/>
<path d="M102.124 122.182H91.6367V132.669H102.124V122.182Z" fill="#333333"/>
<path d="M112.306 122.182H101.818V132.669H112.306V122.182Z" fill="#333333"/>
<path d="M122.487 122.182H112V132.669H122.487V122.182Z" fill="#333333"/>
<path d="M132.669 122.182H122.182V132.669H132.669V122.182Z" fill="#333333"/>
<path d="M153.033 122.182H142.545V132.669H153.033V122.182Z" fill="#333333"/>
<path d="M173.396 122.182H162.909V132.669H173.396V122.182Z" fill="#333333"/>
<path d="M183.578 122.182H173.091V132.669H183.578V122.182Z" fill="#333333"/>
<path d="M193.76 122.182H183.273V132.669H193.76V122.182Z" fill="#333333"/>
<path d="M224.306 122.182H213.818V132.669H224.306V122.182Z" fill="#333333"/>
<path d="M254.851 122.182H244.364V132.669H254.851V122.182Z" fill="#333333"/>
<path d="M295.578 122.182H285.091V132.669H295.578V122.182Z" fill="#333333"/>
<path d="M30.851 132.364H20.3638V142.851H30.851V132.364Z" fill="#333333"/>
<path d="M41.0327 132.364H30.5454V142.851H41.0327V132.364Z" fill="#333333"/>
<path d="M61.3965 132.364H50.9092V142.851H61.3965V132.364Z" fill="#333333"/>
<path d="M71.5781 132.364H61.0908V142.851H71.5781V132.364Z" fill="#333333"/>
<path d="M102.124 132.364H91.6367V142.851H102.124V132.364Z" fill="#333333"/>
<path d="M122.487 132.364H112V142.851H122.487V132.364Z" fill="#333333"/>
<path d="M142.851 132.364H132.364V142.851H142.851V132.364Z" fill="#333333"/>
<path d="M173.396 132.364H162.909V142.851H173.396V132.364Z" fill="#333333"/>
<path d="M183.578 132.364H173.091V142.851H183.578V132.364Z" fill="#333333"/>
<path d="M214.124 132.364H203.637V142.851H214.124V132.364Z" fill="#333333"/>
<path d="M224.306 132.364H213.818V142.851H224.306V132.364Z" fill="#333333"/>
<path d="M234.487 132.364H224V142.851H234.487V132.364Z" fill="#333333"/>
<path d="M254.851 132.364H244.364V142.851H254.851V132.364Z" fill="#333333"/>
<path d="M265.033 132.364H254.545V142.851H265.033V132.364Z" fill="#333333"/>
<path d="M285.396 132.364H274.909V142.851H285.396V132.364Z" fill="#333333"/>
<path d="M305.76 132.364H295.273V142.851H305.76V132.364Z" fill="#333333"/>
<path d="M41.0327 142.545H30.5454V153.033H41.0327V142.545Z" fill="#333333"/>
<path d="M81.7602 142.545H71.2729V153.033H81.7602V142.545Z" fill="#333333"/>
<path d="M91.9419 142.545H81.4546V153.033H91.9419V142.545Z" fill="#333333"/>
<path d="M102.124 142.545H91.6367V153.033H102.124V142.545Z" fill="#333333"/>
<path d="M153.033 142.545H142.545V153.033H153.033V142.545Z" fill="#333333"/>
<path d="M173.396 142.545H162.909V153.033H173.396V142.545Z" fill="#333333"/>
<path d="M193.76 142.545H183.273V153.033H193.76V142.545Z" fill="#333333"/>
<path d="M203.942 142.545H193.455V153.033H203.942V142.545Z" fill="#333333"/>
<path d="M214.124 142.545H203.637V153.033H214.124V142.545Z" fill="#333333"/>
<path d="M224.306 142.545H213.818V153.033H224.306V142.545Z" fill="#333333"/>
<path d="M244.669 142.545H234.182V153.033H244.669V142.545Z" fill="#333333"/>
<path d="M295.578 142.545H285.091V153.033H295.578V142.545Z" fill="#333333"/>
<path d="M305.76 142.545H295.273V153.033H305.76V142.545Z" fill="#333333"/>
<path d="M315.942 142.545H305.455V153.033H315.942V142.545Z" fill="#333333"/>
<path d="M41.0327 152.727H30.5454V163.215H41.0327V152.727Z" fill="#333333"/>
<path d="M102.124 152.727H91.6367V163.215H102.124V152.727Z" fill="#333333"/>
<path d="M132.669 152.727H122.182V163.215H132.669V152.727Z" fill="#333333"/>
<path d="M163.215 152.727H152.728V163.215H163.215V152.727Z" fill="#333333"/>
<path d="M183.578 152.727H173.091V163.215H183.578V152.727Z" fill="#333333"/>
<path d="M193.76 152.727H183.273V163.215H193.76V152.727Z" fill="#333333"/>
<path d="M203.942 152.727H193.455V163.215H203.942V152.727Z" fill="#333333"/>
<path d="M214.124 152.727H203.637V163.215H214.124V152.727Z" fill="#333333"/>
<path d="M224.306 152.727H213.818V163.215H224.306V152.727Z" fill="#333333"/>
<path d="M234.487 152.727H224V163.215H234.487V152.727Z" fill="#333333"/>
<path d="M244.669 152.727H234.182V163.215H244.669V152.727Z" fill="#333333"/>
<path d="M254.851 152.727H244.364V163.215H254.851V152.727Z" fill="#333333"/>
<path d="M275.215 152.727H264.728V163.215H275.215V152.727Z" fill="#333333"/>
<path d="M285.396 152.727H274.909V163.215H285.396V152.727Z" fill="#333333"/>
<path d="M305.76 152.727H295.273V163.215H305.76V152.727Z" fill="#333333"/>
<path d="M315.942 152.727H305.455V163.215H315.942V152.727Z" fill="#333333"/>
<path d="M30.851 162.909H20.3638V173.396H30.851V162.909Z" fill="#333333"/>
<path d="M41.0327 162.909H30.5454V173.396H41.0327V162.909Z" fill="#333333"/>
<path d="M51.2148 162.909H40.7275V173.396H51.2148V162.909Z" fill="#333333"/>
<path d="M61.3965 162.909H50.9092V173.396H61.3965V162.909Z" fill="#333333"/>
<path d="M71.5781 162.909H61.0908V173.396H71.5781V162.909Z" fill="#333333"/>
<path d="M91.9419 162.909H81.4546V173.396H91.9419V162.909Z" fill="#333333"/>
<path d="M122.487 162.909H112V173.396H122.487V162.909Z" fill="#333333"/>
<path d="M173.396 162.909H162.909V173.396H173.396V162.909Z" fill="#333333"/>
<path d="M183.578 162.909H173.091V173.396H183.578V162.909Z" fill="#333333"/>
<path d="M203.942 162.909H193.455V173.396H203.942V162.909Z" fill="#333333"/>
<path d="M214.124 162.909H203.637V173.396H214.124V162.909Z" fill="#333333"/>
<path d="M234.487 162.909H224V173.396H234.487V162.909Z" fill="#333333"/>
<path d="M244.669 162.909H234.182V173.396H244.669V162.909Z" fill="#333333"/>
<path d="M305.76 162.909H295.273V173.396H305.76V162.909Z" fill="#333333"/>
<path d="M51.2148 173.091H40.7275V183.578H51.2148V173.091Z" fill="#333333"/>
<path d="M61.3965 173.091H50.9092V183.578H61.3965V173.091Z" fill="#333333"/>
<path d="M71.5781 173.091H61.0908V183.578H71.5781V173.091Z" fill="#333333"/>
<path d="M132.669 173.091H122.182V183.578H132.669V173.091Z" fill="#333333"/>
<path d="M163.215 173.091H152.728V183.578H163.215V173.091Z" fill="#333333"/>
<path d="M193.76 173.091H183.273V183.578H193.76V173.091Z" fill="#333333"/>
<path d="M203.942 173.091H193.455V183.578H203.942V173.091Z" fill="#333333"/>
<path d="M214.124 173.091H203.637V183.578H214.124V173.091Z" fill="#333333"/>
<path d="M224.306 173.091H213.818V183.578H224.306V173.091Z" fill="#333333"/>
<path d="M234.487 173.091H224V183.578H234.487V173.091Z" fill="#333333"/>
<path d="M285.396 173.091H274.909V183.578H285.396V173.091Z" fill="#333333"/>
<path d="M41.0327 183.273H30.5454V193.76H41.0327V183.273Z" fill="#333333"/>
<path d="M51.2148 183.273H40.7275V193.76H51.2148V183.273Z" fill="#333333"/>
<path d="M61.3965 183.273H50.9092V193.76H61.3965V183.273Z" fill="#333333"/>
<path d="M81.7602 183.273H71.2729V193.76H81.7602V183.273Z" fill="#333333"/>
<path d="M91.9419 183.273H81.4546V193.76H91.9419V183.273Z" fill="#333333"/>
<path d="M102.124 183.273H91.6367V193.76H102.124V183.273Z" fill="#333333"/>
<path d="M112.306 183.273H101.818V193.76H112.306V183.273Z" fill="#333333"/>
<path d="M142.851 183.273H132.364V193.76H142.851V183.273Z" fill="#333333"/>
<path d="M153.033 183.273H142.545V193.76H153.033V183.273Z" fill="#333333"/>
<path d="M173.396 183.273H162.909V193.76H173.396V183.273Z" fill="#333333"/>
<path d="M214.124 183.273H203.637V193.76H214.124V183.273Z" fill="#333333"/>
<path d="M224.306 183.273H213.818V193.76H224.306V183.273Z" fill="#333333"/>
<path d="M234.487 183.273H224V193.76H234.487V183.273Z" fill="#333333"/>
<path d="M244.669 183.273H234.182V193.76H244.669V183.273Z" fill="#333333"/>
<path d="M275.215 183.273H264.728V193.76H275.215V183.273Z" fill="#333333"/>
<path d="M285.396 183.273H274.909V193.76H285.396V183.273Z" fill="#333333"/>
<path d="M295.578 183.273H285.091V193.76H295.578V183.273Z" fill="#333333"/>
<path d="M30.851 193.455H20.3638V203.942H30.851V193.455Z" fill="#333333"/>
<path d="M41.0327 193.455H30.5454V203.942H41.0327V193.455Z" fill="#333333"/>
<path d="M61.3965 193.455H50.9092V203.942H61.3965V193.455Z" fill="#333333"/>
<path d="M132.669 193.455H122.182V203.942H132.669V193.455Z" fill="#333333"/>
<path d="M142.851 193.455H132.364V203.942H142.851V193.455Z" fill="#333333"/>
<path d="M163.215 193.455H152.728V203.942H163.215V193.455Z" fill="#333333"/>
<path d="M173.396 193.455H162.909V203.942H173.396V193.455Z" fill="#333333"/>
<path d="M183.578 193.455H173.091V203.942H183.578V193.455Z" fill="#333333"/>
<path d="M275.215 193.455H264.728V203.942H275.215V193.455Z" fill="#333333"/>
<path d="M305.76 193.455H295.273V203.942H305.76V193.455Z" fill="#333333"/>
<path d="M315.942 193.455H305.455V203.942H315.942V193.455Z" fill="#333333"/>
<path d="M30.851 203.636H20.3638V214.124H30.851V203.636Z" fill="#333333"/>
<path d="M51.2148 203.636H40.7275V214.124H51.2148V203.636Z" fill="#333333"/>
<path d="M81.7602 203.636H71.2729V214.124H81.7602V203.636Z" fill="#333333"/>
<path d="M91.9419 203.636H81.4546V214.124H91.9419V203.636Z" fill="#333333"/>
<path d="M102.124 203.636H91.6367V214.124H102.124V203.636Z" fill="#333333"/>
<path d="M142.851 203.636H132.364V214.124H142.851V203.636Z" fill="#333333"/>
<path d="M153.033 203.636H142.545V214.124H153.033V203.636Z" fill="#333333"/>
<path d="M163.215 203.636H152.728V214.124H163.215V203.636Z" fill="#333333"/>
<path d="M193.76 203.636H183.273V214.124H193.76V203.636Z" fill="#333333"/>
<path d="M234.487 203.636H224V214.124H234.487V203.636Z" fill="#333333"/>
<path d="M254.851 203.636H244.364V214.124H254.851V203.636Z" fill="#333333"/>
<path d="M265.033 203.636H254.545V214.124H265.033V203.636Z" fill="#333333"/>
<path d="M275.215 203.636H264.728V214.124H275.215V203.636Z" fill="#333333"/>
<path d="M285.396 203.636H274.909V214.124H285.396V203.636Z" fill="#333333"/>
<path d="M295.578 203.636H285.091V214.124H295.578V203.636Z" fill="#333333"/>
<path d="M30.851 213.818H20.3638V224.305H30.851V213.818Z" fill="#333333"/>
<path d="M71.5781 213.818H61.0908V224.305H71.5781V213.818Z" fill="#333333"/>
<path d="M102.124 213.818H91.6367V224.305H102.124V213.818Z" fill="#333333"/>
<path d="M122.487 213.818H112V224.305H122.487V213.818Z" fill="#333333"/>
<path d="M132.669 213.818H122.182V224.305H132.669V213.818Z" fill="#333333"/>
<path d="M142.851 213.818H132.364V224.305H142.851V213.818Z" fill="#333333"/>
<path d="M153.033 213.818H142.545V224.305H153.033V213.818Z" fill="#333333"/>
<path d="M173.396 213.818H162.909V224.305H173.396V213.818Z" fill="#333333"/>
<path d="M183.578 213.818H173.091V224.305H183.578V213.818Z" fill="#333333"/>
<path d="M203.942 213.818H193.455V224.305H203.942V213.818Z" fill="#333333"/>
<path d="M214.124 213.818H203.637V224.305H214.124V213.818Z" fill="#333333"/>
<path d="M254.851 213.818H244.364V224.305H254.851V213.818Z" fill="#333333"/>
<path d="M265.033 213.818H254.545V224.305H265.033V213.818Z" fill="#333333"/>
<path d="M285.396 213.818H274.909V224.305H285.396V213.818Z" fill="#333333"/>
<path d="M30.851 224H20.3638V234.487H30.851V224Z" fill="#333333"/>
<path d="M51.2148 224H40.7275V234.487H51.2148V224Z" fill="#333333"/>
<path d="M71.5781 224H61.0908V234.487H71.5781V224Z" fill="#333333"/>
<path d="M81.7602 224H71.2729V234.487H81.7602V224Z" fill="#333333"/>
<path d="M91.9419 224H81.4546V234.487H91.9419V224Z" fill="#333333"/>
<path d="M102.124 224H91.6367V234.487H102.124V224Z" fill="#333333"/>
<path d="M122.487 224H112V234.487H122.487V224Z" fill="#333333"/>
<path d="M153.033 224H142.545V234.487H153.033V224Z" fill="#333333"/>
<path d="M163.215 224H152.728V234.487H163.215V224Z" fill="#333333"/>
<path d="M183.578 224H173.091V234.487H183.578V224Z" fill="#333333"/>
<path d="M193.76 224H183.273V234.487H193.76V224Z" fill="#333333"/>
<path d="M234.487 224H224V234.487H234.487V224Z" fill="#333333"/>
<path d="M244.669 224H234.182V234.487H244.669V224Z" fill="#333333"/>
<path d="M254.851 224H244.364V234.487H254.851V224Z" fill="#333333"/>
<path d="M265.033 224H254.545V234.487H265.033V224Z" fill="#333333"/>
<path d="M275.215 224H264.728V234.487H275.215V224Z" fill="#333333"/>
<path d="M295.578 224H285.091V234.487H295.578V224Z" fill="#333333"/>
<path d="M305.76 224H295.273V234.487H305.76V224Z" fill="#333333"/>
<path d="M112.306 234.182H101.818V244.669H112.306V234.182Z" fill="#333333"/>
<path d="M122.487 234.182H112V244.669H122.487V234.182Z" fill="#333333"/>
<path d="M132.669 234.182H122.182V244.669H132.669V234.182Z" fill="#333333"/>
<path d="M163.215 234.182H152.728V244.669H163.215V234.182Z" fill="#333333"/>
<path d="M193.76 234.182H183.273V244.669H193.76V234.182Z" fill="#333333"/>
<path d="M203.942 234.182H193.455V244.669H203.942V234.182Z" fill="#333333"/>
<path d="M234.487 234.182H224V244.669H234.487V234.182Z" fill="#333333"/>
<path d="M275.215 234.182H264.728V244.669H275.215V234.182Z" fill="#333333"/>
<path d="M285.396 234.182H274.909V244.669H285.396V234.182Z" fill="#333333"/>
<path d="M305.76 234.182H295.273V244.669H305.76V234.182Z" fill="#333333"/>
<path d="M315.942 234.182H305.455V244.669H315.942V234.182Z" fill="#333333"/>
<path d="M122.487 244.364H112V254.851H122.487V244.364Z" fill="#333333"/>
<path d="M142.851 244.364H132.364V254.851H142.851V244.364Z" fill="#333333"/>
<path d="M193.76 244.364H183.273V254.851H193.76V244.364Z" fill="#333333"/>
<path d="M214.124 244.364H203.637V254.851H214.124V244.364Z" fill="#333333"/>
<path d="M224.306 244.364H213.818V254.851H224.306V244.364Z" fill="#333333"/>
<path d="M234.487 244.364H224V254.851H234.487V244.364Z" fill="#333333"/>
<path d="M254.851 244.364H244.364V254.851H254.851V244.364Z" fill="#333333"/>
<path d="M275.215 244.364H264.728V254.851H275.215V244.364Z" fill="#333333"/>
<path d="M122.487 254.545H112V265.033H122.487V254.545Z" fill="#333333"/>
<path d="M132.669 254.545H122.182V265.033H132.669V254.545Z" fill="#333333"/>
<path d="M142.851 254.545H132.364V265.033H142.851V254.545Z" fill="#333333"/>
<path d="M173.396 254.545H162.909V265.033H173.396V254.545Z" fill="#333333"/>
<path d="M183.578 254.545H173.091V265.033H183.578V254.545Z" fill="#333333"/>
<path d="M193.76 254.545H183.273V265.033H193.76V254.545Z" fill="#333333"/>
<path d="M203.942 254.545H193.455V265.033H203.942V254.545Z" fill="#333333"/>
<path d="M214.124 254.545H203.637V265.033H214.124V254.545Z" fill="#333333"/>
<path d="M224.306 254.545H213.818V265.033H224.306V254.545Z" fill="#333333"/>
<path d="M234.487 254.545H224V265.033H234.487V254.545Z" fill="#333333"/>
<path d="M275.215 254.545H264.728V265.033H275.215V254.545Z" fill="#333333"/>
<path d="M285.396 254.545H274.909V265.033H285.396V254.545Z" fill="#333333"/>
<path d="M305.76 254.545H295.273V265.033H305.76V254.545Z" fill="#333333"/>
<path d="M112.306 264.727H101.818V275.215H112.306V264.727Z" fill="#333333"/>
<path d="M132.669 264.727H122.182V275.215H132.669V264.727Z" fill="#333333"/>
<path d="M142.851 264.727H132.364V275.215H142.851V264.727Z" fill="#333333"/>
<path d="M153.033 264.727H142.545V275.215H153.033V264.727Z" fill="#333333"/>
<path d="M163.215 264.727H152.728V275.215H163.215V264.727Z" fill="#333333"/>
<path d="M173.396 264.727H162.909V275.215H173.396V264.727Z" fill="#333333"/>
<path d="M193.76 264.727H183.273V275.215H193.76V264.727Z" fill="#333333"/>
<path d="M234.487 264.727H224V275.215H234.487V264.727Z" fill="#333333"/>
<path d="M244.669 264.727H234.182V275.215H244.669V264.727Z" fill="#333333"/>
<path d="M254.851 264.727H244.364V275.215H254.851V264.727Z" fill="#333333"/>
<path d="M265.033 264.727H254.545V275.215H265.033V264.727Z" fill="#333333"/>
<path d="M275.215 264.727H264.728V275.215H275.215V264.727Z" fill="#333333"/>
<path d="M285.396 264.727H274.909V275.215H285.396V264.727Z" fill="#333333"/>
<path d="M295.578 264.727H285.091V275.215H295.578V264.727Z" fill="#333333"/>
<path d="M315.942 264.727H305.455V275.215H315.942V264.727Z" fill="#333333"/>
<path d="M112.306 274.909H101.818V285.396H112.306V274.909Z" fill="#333333"/>
<path d="M142.851 274.909H132.364V285.396H142.851V274.909Z" fill="#333333"/>
<path d="M153.033 274.909H142.545V285.396H153.033V274.909Z" fill="#333333"/>
<path d="M163.215 274.909H152.728V285.396H163.215V274.909Z" fill="#333333"/>
<path d="M173.396 274.909H162.909V285.396H173.396V274.909Z" fill="#333333"/>
<path d="M193.76 274.909H183.273V285.396H193.76V274.909Z" fill="#333333"/>
<path d="M214.124 274.909H203.637V285.396H214.124V274.909Z" fill="#333333"/>
<path d="M224.306 274.909H213.818V285.396H224.306V274.909Z" fill="#333333"/>
<path d="M234.487 274.909H224V285.396H234.487V274.909Z" fill="#333333"/>
<path d="M265.033 274.909H254.545V285.396H265.033V274.909Z" fill="#333333"/>
<path d="M285.396 274.909H274.909V285.396H285.396V274.909Z" fill="#333333"/>
<path d="M295.578 274.909H285.091V285.396H295.578V274.909Z" fill="#333333"/>
<path d="M112.306 285.091H101.818V295.578H112.306V285.091Z" fill="#333333"/>
<path d="M122.487 285.091H112V295.578H122.487V285.091Z" fill="#333333"/>
<path d="M142.851 285.091H132.364V295.578H142.851V285.091Z" fill="#333333"/>
<path d="M173.396 285.091H162.909V295.578H173.396V285.091Z" fill="#333333"/>
<path d="M183.578 285.091H173.091V295.578H183.578V285.091Z" fill="#333333"/>
<path d="M193.76 285.091H183.273V295.578H193.76V285.091Z" fill="#333333"/>
<path d="M203.942 285.091H193.455V295.578H203.942V285.091Z" fill="#333333"/>
<path d="M224.306 285.091H213.818V295.578H224.306V285.091Z" fill="#333333"/>
<path d="M244.669 285.091H234.182V295.578H244.669V285.091Z" fill="#333333"/>
<path d="M254.851 285.091H244.364V295.578H254.851V285.091Z" fill="#333333"/>
<path d="M275.215 285.091H264.728V295.578H275.215V285.091Z" fill="#333333"/>
<path d="M285.396 285.091H274.909V295.578H285.396V285.091Z" fill="#333333"/>
<path d="M295.578 285.091H285.091V295.578H295.578V285.091Z" fill="#333333"/>
<path d="M305.76 285.091H295.273V295.578H305.76V285.091Z" fill="#333333"/>
<path d="M122.487 295.273H112V305.76H122.487V295.273Z" fill="#333333"/>
<path d="M142.851 295.273H132.364V305.76H142.851V295.273Z" fill="#333333"/>
<path d="M153.033 295.273H142.545V305.76H153.033V295.273Z" fill="#333333"/>
<path d="M163.215 295.273H152.728V305.76H163.215V295.273Z" fill="#333333"/>
<path d="M173.396 295.273H162.909V305.76H173.396V295.273Z" fill="#333333"/>
<path d="M183.578 295.273H173.091V305.76H183.578V295.273Z" fill="#333333"/>
<path d="M203.942 295.273H193.455V305.76H203.942V295.273Z" fill="#333333"/>
<path d="M254.851 295.273H244.364V305.76H254.851V295.273Z" fill="#333333"/>
<path d="M275.215 295.273H264.728V305.76H275.215V295.273Z" fill="#333333"/>
<path d="M285.396 295.273H274.909V305.76H285.396V295.273Z" fill="#333333"/>
<path d="M305.76 295.273H295.273V305.76H305.76V295.273Z" fill="#333333"/>
<path d="M122.487 305.455H112V315.942H122.487V305.455Z" fill="#333333"/>
<path d="M153.033 305.455H142.545V315.942H153.033V305.455Z" fill="#333333"/>
<path d="M163.215 305.455H152.728V315.942H163.215V305.455Z" fill="#333333"/>
<path d="M173.396 305.455H162.909V315.942H173.396V305.455Z" fill="#333333"/>
<path d="M183.578 305.455H173.091V315.942H183.578V305.455Z" fill="#333333"/>
<path d="M193.76 305.455H183.273V315.942H193.76V305.455Z" fill="#333333"/>
<path d="M224.306 305.455H213.818V315.942H224.306V305.455Z" fill="#333333"/>
<path d="M234.487 305.455H224V315.942H234.487V305.455Z" fill="#333333"/>
<path d="M244.669 305.455H234.182V315.942H244.669V305.455Z" fill="#333333"/>
<path d="M254.851 305.455H244.364V315.942H254.851V305.455Z" fill="#333333"/>
<path d="M275.215 305.455H264.728V315.942H275.215V305.455Z" fill="#333333"/>
<path d="M295.578 305.455H285.091V315.942H295.578V305.455Z" fill="#333333"/>
<path d="M20.3638 20.3636V91.6364H91.6365V20.3636H20.3638ZM81.4547 81.4546H30.5456V30.5455H81.4547V81.4546Z" fill="#333333"/>
<path d="M244.364 20.3636V91.6364H315.636V20.3636H244.364ZM305.455 81.4546H254.546V30.5455H305.455V81.4546Z" fill="#333333"/>
<path d="M20.3638 244.364V315.636H91.6365V244.364H20.3638ZM81.4547 305.455H30.5456V254.545H81.4547V305.455Z" fill="#333333"/>
<path d="M71.273 40.7273H40.7275V71.2727H71.273V40.7273Z" fill="#333333"/>
<path d="M295.273 40.7273H264.728V71.2727H295.273V40.7273Z" fill="#333333"/>
<path d="M71.273 264.727H40.7275V295.273H71.273V264.727Z" fill="#333333"/>
</svg>
