<svg width="393" height="392" viewBox="0 0 393 392" fill="none" xmlns="http://www.w3.org/2000/svg">
<rect x="28" y="28" width="336" height="336" rx="10" fill="white"/>
<path d="M140.305 48.3636H129.817V58.8509H140.305V48.3636Z" fill="#333333"/>
<path d="M181.032 48.3636H170.545V58.8509H181.032V48.3636Z" fill="#333333"/>
<path d="M221.76 48.3636H211.272V58.8509H221.76V48.3636Z" fill="#333333"/>
<path d="M140.305 58.5455H129.817V69.0327H140.305V58.5455Z" fill="#333333"/>
<path d="M160.669 58.5455H150.182V69.0327H160.669V58.5455Z" fill="#333333"/>
<path d="M181.032 58.5455H170.545V69.0327H181.032V58.5455Z" fill="#333333"/>
<path d="M191.214 58.5455H180.727V69.0327H191.214V58.5455Z" fill="#333333"/>
<path d="M201.396 58.5455H190.909V69.0327H201.396V58.5455Z" fill="#333333"/>
<path d="M211.578 58.5455H201.091V69.0327H211.578V58.5455Z" fill="#333333"/>
<path d="M231.941 58.5455H221.454V69.0327H231.941V58.5455Z" fill="#333333"/>
<path d="M262.487 58.5455H252V69.0327H262.487V58.5455Z" fill="#333333"/>
<path d="M140.305 68.7273H129.817V79.2146H140.305V68.7273Z" fill="#333333"/>
<path d="M150.487 68.7273H140V79.2146H150.487V68.7273Z" fill="#333333"/>
<path d="M170.851 68.7273H160.363V79.2146H170.851V68.7273Z" fill="#333333"/>
<path d="M181.032 68.7273H170.545V79.2146H181.032V68.7273Z" fill="#333333"/>
<path d="M211.578 68.7273H201.091V79.2146H211.578V68.7273Z" fill="#333333"/>
<path d="M160.669 78.9091H150.182V89.3964H160.669V78.9091Z" fill="#333333"/>
<path d="M181.032 78.9091H170.545V89.3964H181.032V78.9091Z" fill="#333333"/>
<path d="M201.396 78.9091H190.909V89.3964H201.396V78.9091Z" fill="#333333"/>
<path d="M211.578 78.9091H201.091V89.3964H211.578V78.9091Z" fill="#333333"/>
<path d="M231.941 78.9091H221.454V89.3964H231.941V78.9091Z" fill="#333333"/>
<path d="M150.487 89.0909H140V99.5782H150.487V89.0909Z" fill="#333333"/>
<path d="M160.669 89.0909H150.182V99.5782H160.669V89.0909Z" fill="#333333"/>
<path d="M170.851 89.0909H160.363V99.5782H170.851V89.0909Z" fill="#333333"/>
<path d="M201.396 89.0909H190.909V99.5782H201.396V89.0909Z" fill="#333333"/>
<path d="M211.578 89.0909H201.091V99.5782H211.578V89.0909Z" fill="#333333"/>
<path d="M231.941 89.0909H221.454V99.5782H231.941V89.0909Z" fill="#333333"/>
<path d="M242.123 89.0909H231.636V99.5782H242.123V89.0909Z" fill="#333333"/>
<path d="M252.305 89.0909H241.817V99.5782H252.305V89.0909Z" fill="#333333"/>
<path d="M262.487 89.0909H252V99.5782H262.487V89.0909Z" fill="#333333"/>
<path d="M140.305 99.2728H129.817V109.76H140.305V99.2728Z" fill="#333333"/>
<path d="M181.032 99.2728H170.545V109.76H181.032V99.2728Z" fill="#333333"/>
<path d="M201.396 99.2728H190.909V109.76H201.396V99.2728Z" fill="#333333"/>
<path d="M211.578 99.2728H201.091V109.76H211.578V99.2728Z" fill="#333333"/>
<path d="M231.941 99.2728H221.454V109.76H231.941V99.2728Z" fill="#333333"/>
<path d="M262.487 99.2728H252V109.76H262.487V99.2728Z" fill="#333333"/>
<path d="M140.305 109.455H129.817V119.942H140.305V109.455Z" fill="#333333"/>
<path d="M160.669 109.455H150.182V119.942H160.669V109.455Z" fill="#333333"/>
<path d="M181.032 109.455H170.545V119.942H181.032V109.455Z" fill="#333333"/>
<path d="M201.396 109.455H190.909V119.942H201.396V109.455Z" fill="#333333"/>
<path d="M221.76 109.455H211.272V119.942H221.76V109.455Z" fill="#333333"/>
<path d="M242.123 109.455H231.636V119.942H242.123V109.455Z" fill="#333333"/>
<path d="M262.487 109.455H252V119.942H262.487V109.455Z" fill="#333333"/>
<path d="M140.305 119.636H129.817V130.124H140.305V119.636Z" fill="#333333"/>
<path d="M150.487 119.636H140V130.124H150.487V119.636Z" fill="#333333"/>
<path d="M181.032 119.636H170.545V130.124H181.032V119.636Z" fill="#333333"/>
<path d="M201.396 119.636H190.909V130.124H201.396V119.636Z" fill="#333333"/>
<path d="M221.76 119.636H211.272V130.124H221.76V119.636Z" fill="#333333"/>
<path d="M231.941 119.636H221.454V130.124H231.941V119.636Z" fill="#333333"/>
<path d="M242.123 119.636H231.636V130.124H242.123V119.636Z" fill="#333333"/>
<path d="M252.305 119.636H241.817V130.124H252.305V119.636Z" fill="#333333"/>
<path d="M262.487 119.636H252V130.124H262.487V119.636Z" fill="#333333"/>
<path d="M79.2138 129.818H68.7266V140.305H79.2138V129.818Z" fill="#333333"/>
<path d="M89.3965 129.818H78.9092V140.305H89.3965V129.818Z" fill="#333333"/>
<path d="M99.5781 129.818H89.0908V140.305H99.5781V129.818Z" fill="#333333"/>
<path d="M119.941 129.818H109.454V140.305H119.941V129.818Z" fill="#333333"/>
<path d="M140.305 129.818H129.817V140.305H140.305V129.818Z" fill="#333333"/>
<path d="M150.487 129.818H140V140.305H150.487V129.818Z" fill="#333333"/>
<path d="M160.669 129.818H150.182V140.305H160.669V129.818Z" fill="#333333"/>
<path d="M170.851 129.818H160.363V140.305H170.851V129.818Z" fill="#333333"/>
<path d="M181.032 129.818H170.545V140.305H181.032V129.818Z" fill="#333333"/>
<path d="M191.214 129.818H180.727V140.305H191.214V129.818Z" fill="#333333"/>
<path d="M211.578 129.818H201.091V140.305H211.578V129.818Z" fill="#333333"/>
<path d="M221.76 129.818H211.272V140.305H221.76V129.818Z" fill="#333333"/>
<path d="M252.305 129.818H241.817V140.305H252.305V129.818Z" fill="#333333"/>
<path d="M272.669 129.818H262.182V140.305H272.669V129.818Z" fill="#333333"/>
<path d="M282.851 129.818H272.363V140.305H282.851V129.818Z" fill="#333333"/>
<path d="M293.032 129.818H282.545V140.305H293.032V129.818Z" fill="#333333"/>
<path d="M323.578 129.818H313.091V140.305H323.578V129.818Z" fill="#333333"/>
<path d="M333.76 129.818H323.272V140.305H333.76V129.818Z" fill="#333333"/>
<path d="M343.941 129.818H333.454V140.305H343.941V129.818Z" fill="#333333"/>
<path d="M89.3965 140H78.9092V150.487H89.3965V140Z" fill="#333333"/>
<path d="M109.76 140H99.2725V150.487H109.76V140Z" fill="#333333"/>
<path d="M130.123 140H119.636V150.487H130.123V140Z" fill="#333333"/>
<path d="M150.487 140H140V150.487H150.487V140Z" fill="#333333"/>
<path d="M160.669 140H150.182V150.487H160.669V140Z" fill="#333333"/>
<path d="M170.851 140H160.363V150.487H170.851V140Z" fill="#333333"/>
<path d="M181.032 140H170.545V150.487H181.032V140Z" fill="#333333"/>
<path d="M201.396 140H190.909V150.487H201.396V140Z" fill="#333333"/>
<path d="M211.578 140H201.091V150.487H211.578V140Z" fill="#333333"/>
<path d="M231.941 140H221.454V150.487H231.941V140Z" fill="#333333"/>
<path d="M242.123 140H231.636V150.487H242.123V140Z" fill="#333333"/>
<path d="M262.487 140H252V150.487H262.487V140Z" fill="#333333"/>
<path d="M272.669 140H262.182V150.487H272.669V140Z" fill="#333333"/>
<path d="M293.032 140H282.545V150.487H293.032V140Z" fill="#333333"/>
<path d="M313.396 140H302.909V150.487H313.396V140Z" fill="#333333"/>
<path d="M323.578 140H313.091V150.487H323.578V140Z" fill="#333333"/>
<path d="M343.941 140H333.454V150.487H343.941V140Z" fill="#333333"/>
<path d="M69.0322 150.182H58.5449V160.669H69.0322V150.182Z" fill="#333333"/>
<path d="M99.5781 150.182H89.0908V160.669H99.5781V150.182Z" fill="#333333"/>
<path d="M119.941 150.182H109.454V160.669H119.941V150.182Z" fill="#333333"/>
<path d="M130.123 150.182H119.636V160.669H130.123V150.182Z" fill="#333333"/>
<path d="M140.305 150.182H129.817V160.669H140.305V150.182Z" fill="#333333"/>
<path d="M150.487 150.182H140V160.669H150.487V150.182Z" fill="#333333"/>
<path d="M160.669 150.182H150.182V160.669H160.669V150.182Z" fill="#333333"/>
<path d="M181.032 150.182H170.545V160.669H181.032V150.182Z" fill="#333333"/>
<path d="M201.396 150.182H190.909V160.669H201.396V150.182Z" fill="#333333"/>
<path d="M211.578 150.182H201.091V160.669H211.578V150.182Z" fill="#333333"/>
<path d="M221.76 150.182H211.272V160.669H221.76V150.182Z" fill="#333333"/>
<path d="M252.305 150.182H241.817V160.669H252.305V150.182Z" fill="#333333"/>
<path d="M282.851 150.182H272.363V160.669H282.851V150.182Z" fill="#333333"/>
<path d="M323.578 150.182H313.091V160.669H323.578V150.182Z" fill="#333333"/>
<path d="M58.8506 160.364H48.3633V170.851H58.8506V160.364Z" fill="#333333"/>
<path d="M69.0322 160.364H58.5449V170.851H69.0322V160.364Z" fill="#333333"/>
<path d="M89.3965 160.364H78.9092V170.851H89.3965V160.364Z" fill="#333333"/>
<path d="M99.5781 160.364H89.0908V170.851H99.5781V160.364Z" fill="#333333"/>
<path d="M130.123 160.364H119.636V170.851H130.123V160.364Z" fill="#333333"/>
<path d="M150.487 160.364H140V170.851H150.487V160.364Z" fill="#333333"/>
<path d="M170.851 160.364H160.363V170.851H170.851V160.364Z" fill="#333333"/>
<path d="M201.396 160.364H190.909V170.851H201.396V160.364Z" fill="#333333"/>
<path d="M211.578 160.364H201.091V170.851H211.578V160.364Z" fill="#333333"/>
<path d="M242.123 160.364H231.636V170.851H242.123V160.364Z" fill="#333333"/>
<path d="M252.305 160.364H241.817V170.851H252.305V160.364Z" fill="#333333"/>
<path d="M262.487 160.364H252V170.851H262.487V160.364Z" fill="#333333"/>
<path d="M282.851 160.364H272.363V170.851H282.851V160.364Z" fill="#333333"/>
<path d="M293.032 160.364H282.545V170.851H293.032V160.364Z" fill="#333333"/>
<path d="M313.396 160.364H302.909V170.851H313.396V160.364Z" fill="#333333"/>
<path d="M333.76 160.364H323.272V170.851H333.76V160.364Z" fill="#333333"/>
<path d="M69.0322 170.545H58.5449V181.033H69.0322V170.545Z" fill="#333333"/>
<path d="M109.76 170.545H99.2725V181.033H109.76V170.545Z" fill="#333333"/>
<path d="M119.941 170.545H109.454V181.033H119.941V170.545Z" fill="#333333"/>
<path d="M130.123 170.545H119.636V181.033H130.123V170.545Z" fill="#333333"/>
<path d="M181.032 170.545H170.545V181.033H181.032V170.545Z" fill="#333333"/>
<path d="M201.396 170.545H190.909V181.033H201.396V170.545Z" fill="#333333"/>
<path d="M221.76 170.545H211.272V181.033H221.76V170.545Z" fill="#333333"/>
<path d="M231.941 170.545H221.454V181.033H231.941V170.545Z" fill="#333333"/>
<path d="M242.123 170.545H231.636V181.033H242.123V170.545Z" fill="#333333"/>
<path d="M252.305 170.545H241.817V181.033H252.305V170.545Z" fill="#333333"/>
<path d="M272.669 170.545H262.182V181.033H272.669V170.545Z" fill="#333333"/>
<path d="M323.578 170.545H313.091V181.033H323.578V170.545Z" fill="#333333"/>
<path d="M333.76 170.545H323.272V181.033H333.76V170.545Z" fill="#333333"/>
<path d="M343.941 170.545H333.454V181.033H343.941V170.545Z" fill="#333333"/>
<path d="M69.0322 180.727H58.5449V191.215H69.0322V180.727Z" fill="#333333"/>
<path d="M130.123 180.727H119.636V191.215H130.123V180.727Z" fill="#333333"/>
<path d="M160.669 180.727H150.182V191.215H160.669V180.727Z" fill="#333333"/>
<path d="M191.214 180.727H180.727V191.215H191.214V180.727Z" fill="#333333"/>
<path d="M211.578 180.727H201.091V191.215H211.578V180.727Z" fill="#333333"/>
<path d="M221.76 180.727H211.272V191.215H221.76V180.727Z" fill="#333333"/>
<path d="M231.941 180.727H221.454V191.215H231.941V180.727Z" fill="#333333"/>
<path d="M242.123 180.727H231.636V191.215H242.123V180.727Z" fill="#333333"/>
<path d="M252.305 180.727H241.817V191.215H252.305V180.727Z" fill="#333333"/>
<path d="M262.487 180.727H252V191.215H262.487V180.727Z" fill="#333333"/>
<path d="M272.669 180.727H262.182V191.215H272.669V180.727Z" fill="#333333"/>
<path d="M282.851 180.727H272.363V191.215H282.851V180.727Z" fill="#333333"/>
<path d="M303.214 180.727H292.727V191.215H303.214V180.727Z" fill="#333333"/>
<path d="M313.396 180.727H302.909V191.215H313.396V180.727Z" fill="#333333"/>
<path d="M333.76 180.727H323.272V191.215H333.76V180.727Z" fill="#333333"/>
<path d="M343.941 180.727H333.454V191.215H343.941V180.727Z" fill="#333333"/>
<path d="M58.8506 190.909H48.3633V201.396H58.8506V190.909Z" fill="#333333"/>
<path d="M69.0322 190.909H58.5449V201.396H69.0322V190.909Z" fill="#333333"/>
<path d="M79.2138 190.909H68.7266V201.396H79.2138V190.909Z" fill="#333333"/>
<path d="M89.3965 190.909H78.9092V201.396H89.3965V190.909Z" fill="#333333"/>
<path d="M99.5781 190.909H89.0908V201.396H99.5781V190.909Z" fill="#333333"/>
<path d="M119.941 190.909H109.454V201.396H119.941V190.909Z" fill="#333333"/>
<path d="M150.487 190.909H140V201.396H150.487V190.909Z" fill="#333333"/>
<path d="M201.396 190.909H190.909V201.396H201.396V190.909Z" fill="#333333"/>
<path d="M211.578 190.909H201.091V201.396H211.578V190.909Z" fill="#333333"/>
<path d="M231.941 190.909H221.454V201.396H231.941V190.909Z" fill="#333333"/>
<path d="M242.123 190.909H231.636V201.396H242.123V190.909Z" fill="#333333"/>
<path d="M262.487 190.909H252V201.396H262.487V190.909Z" fill="#333333"/>
<path d="M272.669 190.909H262.182V201.396H272.669V190.909Z" fill="#333333"/>
<path d="M333.76 190.909H323.272V201.396H333.76V190.909Z" fill="#333333"/>
<path d="M79.2138 201.091H68.7266V211.578H79.2138V201.091Z" fill="#333333"/>
<path d="M89.3965 201.091H78.9092V211.578H89.3965V201.091Z" fill="#333333"/>
<path d="M99.5781 201.091H89.0908V211.578H99.5781V201.091Z" fill="#333333"/>
<path d="M160.669 201.091H150.182V211.578H160.669V201.091Z" fill="#333333"/>
<path d="M191.214 201.091H180.727V211.578H191.214V201.091Z" fill="#333333"/>
<path d="M221.76 201.091H211.272V211.578H221.76V201.091Z" fill="#333333"/>
<path d="M231.941 201.091H221.454V211.578H231.941V201.091Z" fill="#333333"/>
<path d="M242.123 201.091H231.636V211.578H242.123V201.091Z" fill="#333333"/>
<path d="M252.305 201.091H241.817V211.578H252.305V201.091Z" fill="#333333"/>
<path d="M262.487 201.091H252V211.578H262.487V201.091Z" fill="#333333"/>
<path d="M313.396 201.091H302.909V211.578H313.396V201.091Z" fill="#333333"/>
<path d="M69.0322 211.273H58.5449V221.76H69.0322V211.273Z" fill="#333333"/>
<path d="M79.2138 211.273H68.7266V221.76H79.2138V211.273Z" fill="#333333"/>
<path d="M89.3965 211.273H78.9092V221.76H89.3965V211.273Z" fill="#333333"/>
<path d="M109.76 211.273H99.2725V221.76H109.76V211.273Z" fill="#333333"/>
<path d="M119.941 211.273H109.454V221.76H119.941V211.273Z" fill="#333333"/>
<path d="M130.123 211.273H119.636V221.76H130.123V211.273Z" fill="#333333"/>
<path d="M140.305 211.273H129.817V221.76H140.305V211.273Z" fill="#333333"/>
<path d="M170.851 211.273H160.363V221.76H170.851V211.273Z" fill="#333333"/>
<path d="M181.032 211.273H170.545V221.76H181.032V211.273Z" fill="#333333"/>
<path d="M201.396 211.273H190.909V221.76H201.396V211.273Z" fill="#333333"/>
<path d="M242.123 211.273H231.636V221.76H242.123V211.273Z" fill="#333333"/>
<path d="M252.305 211.273H241.817V221.76H252.305V211.273Z" fill="#333333"/>
<path d="M262.487 211.273H252V221.76H262.487V211.273Z" fill="#333333"/>
<path d="M272.669 211.273H262.182V221.76H272.669V211.273Z" fill="#333333"/>
<path d="M303.214 211.273H292.727V221.76H303.214V211.273Z" fill="#333333"/>
<path d="M313.396 211.273H302.909V221.76H313.396V211.273Z" fill="#333333"/>
<path d="M323.578 211.273H313.091V221.76H323.578V211.273Z" fill="#333333"/>
<path d="M58.8506 221.455H48.3633V231.942H58.8506V221.455Z" fill="#333333"/>
<path d="M69.0322 221.455H58.5449V231.942H69.0322V221.455Z" fill="#333333"/>
<path d="M89.3965 221.455H78.9092V231.942H89.3965V221.455Z" fill="#333333"/>
<path d="M160.669 221.455H150.182V231.942H160.669V221.455Z" fill="#333333"/>
<path d="M170.851 221.455H160.363V231.942H170.851V221.455Z" fill="#333333"/>
<path d="M191.214 221.455H180.727V231.942H191.214V221.455Z" fill="#333333"/>
<path d="M201.396 221.455H190.909V231.942H201.396V221.455Z" fill="#333333"/>
<path d="M211.578 221.455H201.091V231.942H211.578V221.455Z" fill="#333333"/>
<path d="M303.214 221.455H292.727V231.942H303.214V221.455Z" fill="#333333"/>
<path d="M333.76 221.455H323.272V231.942H333.76V221.455Z" fill="#333333"/>
<path d="M343.941 221.455H333.454V231.942H343.941V221.455Z" fill="#333333"/>
<path d="M58.8506 231.636H48.3633V242.124H58.8506V231.636Z" fill="#333333"/>
<path d="M79.2138 231.636H68.7266V242.124H79.2138V231.636Z" fill="#333333"/>
<path d="M109.76 231.636H99.2725V242.124H109.76V231.636Z" fill="#333333"/>
<path d="M119.941 231.636H109.454V242.124H119.941V231.636Z" fill="#333333"/>
<path d="M130.123 231.636H119.636V242.124H130.123V231.636Z" fill="#333333"/>
<path d="M170.851 231.636H160.363V242.124H170.851V231.636Z" fill="#333333"/>
<path d="M181.032 231.636H170.545V242.124H181.032V231.636Z" fill="#333333"/>
<path d="M191.214 231.636H180.727V242.124H191.214V231.636Z" fill="#333333"/>
<path d="M221.76 231.636H211.272V242.124H221.76V231.636Z" fill="#333333"/>
<path d="M262.487 231.636H252V242.124H262.487V231.636Z" fill="#333333"/>
<path d="M282.851 231.636H272.363V242.124H282.851V231.636Z" fill="#333333"/>
<path d="M293.032 231.636H282.545V242.124H293.032V231.636Z" fill="#333333"/>
<path d="M303.214 231.636H292.727V242.124H303.214V231.636Z" fill="#333333"/>
<path d="M313.396 231.636H302.909V242.124H313.396V231.636Z" fill="#333333"/>
<path d="M323.578 231.636H313.091V242.124H323.578V231.636Z" fill="#333333"/>
<path d="M58.8506 241.818H48.3633V252.305H58.8506V241.818Z" fill="#333333"/>
<path d="M99.5781 241.818H89.0908V252.305H99.5781V241.818Z" fill="#333333"/>
<path d="M130.123 241.818H119.636V252.305H130.123V241.818Z" fill="#333333"/>
<path d="M150.487 241.818H140V252.305H150.487V241.818Z" fill="#333333"/>
<path d="M160.669 241.818H150.182V252.305H160.669V241.818Z" fill="#333333"/>
<path d="M170.851 241.818H160.363V252.305H170.851V241.818Z" fill="#333333"/>
<path d="M181.032 241.818H170.545V252.305H181.032V241.818Z" fill="#333333"/>
<path d="M201.396 241.818H190.909V252.305H201.396V241.818Z" fill="#333333"/>
<path d="M211.578 241.818H201.091V252.305H211.578V241.818Z" fill="#333333"/>
<path d="M231.941 241.818H221.454V252.305H231.941V241.818Z" fill="#333333"/>
<path d="M242.123 241.818H231.636V252.305H242.123V241.818Z" fill="#333333"/>
<path d="M282.851 241.818H272.363V252.305H282.851V241.818Z" fill="#333333"/>
<path d="M293.032 241.818H282.545V252.305H293.032V241.818Z" fill="#333333"/>
<path d="M313.396 241.818H302.909V252.305H313.396V241.818Z" fill="#333333"/>
<path d="M58.8506 252H48.3633V262.487H58.8506V252Z" fill="#333333"/>
<path d="M79.2138 252H68.7266V262.487H79.2138V252Z" fill="#333333"/>
<path d="M99.5781 252H89.0908V262.487H99.5781V252Z" fill="#333333"/>
<path d="M109.76 252H99.2725V262.487H109.76V252Z" fill="#333333"/>
<path d="M119.941 252H109.454V262.487H119.941V252Z" fill="#333333"/>
<path d="M130.123 252H119.636V262.487H130.123V252Z" fill="#333333"/>
<path d="M150.487 252H140V262.487H150.487V252Z" fill="#333333"/>
<path d="M181.032 252H170.545V262.487H181.032V252Z" fill="#333333"/>
<path d="M191.214 252H180.727V262.487H191.214V252Z" fill="#333333"/>
<path d="M211.578 252H201.091V262.487H211.578V252Z" fill="#333333"/>
<path d="M221.76 252H211.272V262.487H221.76V252Z" fill="#333333"/>
<path d="M262.487 252H252V262.487H262.487V252Z" fill="#333333"/>
<path d="M272.669 252H262.182V262.487H272.669V252Z" fill="#333333"/>
<path d="M282.851 252H272.363V262.487H282.851V252Z" fill="#333333"/>
<path d="M293.032 252H282.545V262.487H293.032V252Z" fill="#333333"/>
<path d="M303.214 252H292.727V262.487H303.214V252Z" fill="#333333"/>
<path d="M323.578 252H313.091V262.487H323.578V252Z" fill="#333333"/>
<path d="M333.76 252H323.272V262.487H333.76V252Z" fill="#333333"/>
<path d="M140.305 262.182H129.817V272.669H140.305V262.182Z" fill="#333333"/>
<path d="M150.487 262.182H140V272.669H150.487V262.182Z" fill="#333333"/>
<path d="M160.669 262.182H150.182V272.669H160.669V262.182Z" fill="#333333"/>
<path d="M191.214 262.182H180.727V272.669H191.214V262.182Z" fill="#333333"/>
<path d="M221.76 262.182H211.272V272.669H221.76V262.182Z" fill="#333333"/>
<path d="M231.941 262.182H221.454V272.669H231.941V262.182Z" fill="#333333"/>
<path d="M262.487 262.182H252V272.669H262.487V262.182Z" fill="#333333"/>
<path d="M303.214 262.182H292.727V272.669H303.214V262.182Z" fill="#333333"/>
<path d="M313.396 262.182H302.909V272.669H313.396V262.182Z" fill="#333333"/>
<path d="M333.76 262.182H323.272V272.669H333.76V262.182Z" fill="#333333"/>
<path d="M343.941 262.182H333.454V272.669H343.941V262.182Z" fill="#333333"/>
<path d="M150.487 272.364H140V282.851H150.487V272.364Z" fill="#333333"/>
<path d="M170.851 272.364H160.363V282.851H170.851V272.364Z" fill="#333333"/>
<path d="M221.76 272.364H211.272V282.851H221.76V272.364Z" fill="#333333"/>
<path d="M242.123 272.364H231.636V282.851H242.123V272.364Z" fill="#333333"/>
<path d="M252.305 272.364H241.817V282.851H252.305V272.364Z" fill="#333333"/>
<path d="M262.487 272.364H252V282.851H262.487V272.364Z" fill="#333333"/>
<path d="M282.851 272.364H272.363V282.851H282.851V272.364Z" fill="#333333"/>
<path d="M303.214 272.364H292.727V282.851H303.214V272.364Z" fill="#333333"/>
<path d="M150.487 282.545H140V293.033H150.487V282.545Z" fill="#333333"/>
<path d="M160.669 282.545H150.182V293.033H160.669V282.545Z" fill="#333333"/>
<path d="M170.851 282.545H160.363V293.033H170.851V282.545Z" fill="#333333"/>
<path d="M201.396 282.545H190.909V293.033H201.396V282.545Z" fill="#333333"/>
<path d="M211.578 282.545H201.091V293.033H211.578V282.545Z" fill="#333333"/>
<path d="M221.76 282.545H211.272V293.033H221.76V282.545Z" fill="#333333"/>
<path d="M231.941 282.545H221.454V293.033H231.941V282.545Z" fill="#333333"/>
<path d="M242.123 282.545H231.636V293.033H242.123V282.545Z" fill="#333333"/>
<path d="M252.305 282.545H241.817V293.033H252.305V282.545Z" fill="#333333"/>
<path d="M262.487 282.545H252V293.033H262.487V282.545Z" fill="#333333"/>
<path d="M303.214 282.545H292.727V293.033H303.214V282.545Z" fill="#333333"/>
<path d="M313.396 282.545H302.909V293.033H313.396V282.545Z" fill="#333333"/>
<path d="M333.76 282.545H323.272V293.033H333.76V282.545Z" fill="#333333"/>
<path d="M140.305 292.727H129.817V303.215H140.305V292.727Z" fill="#333333"/>
<path d="M160.669 292.727H150.182V303.215H160.669V292.727Z" fill="#333333"/>
<path d="M170.851 292.727H160.363V303.215H170.851V292.727Z" fill="#333333"/>
<path d="M181.032 292.727H170.545V303.215H181.032V292.727Z" fill="#333333"/>
<path d="M191.214 292.727H180.727V303.215H191.214V292.727Z" fill="#333333"/>
<path d="M201.396 292.727H190.909V303.215H201.396V292.727Z" fill="#333333"/>
<path d="M221.76 292.727H211.272V303.215H221.76V292.727Z" fill="#333333"/>
<path d="M262.487 292.727H252V303.215H262.487V292.727Z" fill="#333333"/>
<path d="M272.669 292.727H262.182V303.215H272.669V292.727Z" fill="#333333"/>
<path d="M282.851 292.727H272.363V303.215H282.851V292.727Z" fill="#333333"/>
<path d="M293.032 292.727H282.545V303.215H293.032V292.727Z" fill="#333333"/>
<path d="M303.214 292.727H292.727V303.215H303.214V292.727Z" fill="#333333"/>
<path d="M313.396 292.727H302.909V303.215H313.396V292.727Z" fill="#333333"/>
<path d="M323.578 292.727H313.091V303.215H323.578V292.727Z" fill="#333333"/>
<path d="M343.941 292.727H333.454V303.215H343.941V292.727Z" fill="#333333"/>
<path d="M140.305 302.909H129.817V313.396H140.305V302.909Z" fill="#333333"/>
<path d="M170.851 302.909H160.363V313.396H170.851V302.909Z" fill="#333333"/>
<path d="M181.032 302.909H170.545V313.396H181.032V302.909Z" fill="#333333"/>
<path d="M191.214 302.909H180.727V313.396H191.214V302.909Z" fill="#333333"/>
<path d="M201.396 302.909H190.909V313.396H201.396V302.909Z" fill="#333333"/>
<path d="M221.76 302.909H211.272V313.396H221.76V302.909Z" fill="#333333"/>
<path d="M242.123 302.909H231.636V313.396H242.123V302.909Z" fill="#333333"/>
<path d="M252.305 302.909H241.817V313.396H252.305V302.909Z" fill="#333333"/>
<path d="M262.487 302.909H252V313.396H262.487V302.909Z" fill="#333333"/>
<path d="M293.032 302.909H282.545V313.396H293.032V302.909Z" fill="#333333"/>
<path d="M313.396 302.909H302.909V313.396H313.396V302.909Z" fill="#333333"/>
<path d="M323.578 302.909H313.091V313.396H323.578V302.909Z" fill="#333333"/>
<path d="M140.305 313.091H129.817V323.578H140.305V313.091Z" fill="#333333"/>
<path d="M150.487 313.091H140V323.578H150.487V313.091Z" fill="#333333"/>
<path d="M170.851 313.091H160.363V323.578H170.851V313.091Z" fill="#333333"/>
<path d="M201.396 313.091H190.909V323.578H201.396V313.091Z" fill="#333333"/>
<path d="M211.578 313.091H201.091V323.578H211.578V313.091Z" fill="#333333"/>
<path d="M221.76 313.091H211.272V323.578H221.76V313.091Z" fill="#333333"/>
<path d="M231.941 313.091H221.454V323.578H231.941V313.091Z" fill="#333333"/>
<path d="M252.305 313.091H241.817V323.578H252.305V313.091Z" fill="#333333"/>
<path d="M272.669 313.091H262.182V323.578H272.669V313.091Z" fill="#333333"/>
<path d="M282.851 313.091H272.363V323.578H282.851V313.091Z" fill="#333333"/>
<path d="M303.214 313.091H292.727V323.578H303.214V313.091Z" fill="#333333"/>
<path d="M313.396 313.091H302.909V323.578H313.396V313.091Z" fill="#333333"/>
<path d="M323.578 313.091H313.091V323.578H323.578V313.091Z" fill="#333333"/>
<path d="M333.76 313.091H323.272V323.578H333.76V313.091Z" fill="#333333"/>
<path d="M150.487 323.273H140V333.76H150.487V323.273Z" fill="#333333"/>
<path d="M170.851 323.273H160.363V333.76H170.851V323.273Z" fill="#333333"/>
<path d="M181.032 323.273H170.545V333.76H181.032V323.273Z" fill="#333333"/>
<path d="M191.214 323.273H180.727V333.76H191.214V323.273Z" fill="#333333"/>
<path d="M201.396 323.273H190.909V333.76H201.396V323.273Z" fill="#333333"/>
<path d="M211.578 323.273H201.091V333.76H211.578V323.273Z" fill="#333333"/>
<path d="M231.941 323.273H221.454V333.76H231.941V323.273Z" fill="#333333"/>
<path d="M282.851 323.273H272.363V333.76H282.851V323.273Z" fill="#333333"/>
<path d="M303.214 323.273H292.727V333.76H303.214V323.273Z" fill="#333333"/>
<path d="M313.396 323.273H302.909V333.76H313.396V323.273Z" fill="#333333"/>
<path d="M333.76 323.273H323.272V333.76H333.76V323.273Z" fill="#333333"/>
<path d="M150.487 333.455H140V343.942H150.487V333.455Z" fill="#333333"/>
<path d="M181.032 333.455H170.545V343.942H181.032V333.455Z" fill="#333333"/>
<path d="M191.214 333.455H180.727V343.942H191.214V333.455Z" fill="#333333"/>
<path d="M201.396 333.455H190.909V343.942H201.396V333.455Z" fill="#333333"/>
<path d="M211.578 333.455H201.091V343.942H211.578V333.455Z" fill="#333333"/>
<path d="M221.76 333.455H211.272V343.942H221.76V333.455Z" fill="#333333"/>
<path d="M252.305 333.455H241.817V343.942H252.305V333.455Z" fill="#333333"/>
<path d="M262.487 333.455H252V343.942H262.487V333.455Z" fill="#333333"/>
<path d="M272.669 333.455H262.182V343.942H272.669V333.455Z" fill="#333333"/>
<path d="M282.851 333.455H272.363V343.942H282.851V333.455Z" fill="#333333"/>
<path d="M303.214 333.455H292.727V343.942H303.214V333.455Z" fill="#333333"/>
<path d="M323.578 333.455H313.091V343.942H323.578V333.455Z" fill="#333333"/>
<path d="M48.3633 48.3636V119.636H119.636V48.3636H48.3633ZM109.454 109.455H58.5451V58.5455H109.454V109.455Z" fill="#333333"/>
<path d="M272.363 48.3636V119.636H343.636V48.3636H272.363ZM333.454 109.455H282.545V58.5455H333.454V109.455Z" fill="#333333"/>
<path d="M48.3633 272.364V343.636H119.636V272.364H48.3633ZM109.454 333.455H58.5451V282.545H109.454V333.455Z" fill="#333333"/>
<path d="M99.272 68.7273H68.7266V99.2727H99.272V68.7273Z" fill="#333333"/>
<path d="M323.272 68.7273H292.727V99.2727H323.272V68.7273Z" fill="#333333"/>
<path d="M99.272 292.727H68.7266V323.273H99.272V292.727Z" fill="#333333"/>
<path d="M388 357L388 378C388 383.523 383.523 388 378 388L357 388" stroke="#E4370E" stroke-width="8"/>
<path d="M357.5 4L378.5 4C384.023 4 388.5 8.47715 388.5 14L388.5 35" stroke="#E4370E" stroke-width="8"/>
<path d="M4.5 35V14C4.5 8.47715 8.97715 4 14.5 4H35.5" stroke="#E4370E" stroke-width="8"/>
<path d="M35.5 388L14.5 388C8.97715 388 4.5 383.523 4.5 378L4.5 357" stroke="#E4370E" stroke-width="8"/>
</svg>
