<svg display="none" xmlns="http://www.w3.org/2000/svg">

	<symbol id="arrow-right-line" viewBox="0 0 104 24">
		<path
			d="M103.061 13.0607C103.646 12.4749 103.646 11.5251 103.061 10.9393L93.5147 1.39341C92.9289 0.80762 91.9792 0.80762 91.3934 1.39341C90.8076 1.97919 90.8076 2.92894 91.3934 3.51473L99.8787 12L91.3934 20.4853C90.8076 21.0711 90.8076 22.0208 91.3934 22.6066C91.9792 23.1924 92.9289 23.1924 93.5147 22.6066L103.061 13.0607ZM-1.31134e-07 13.5L102 13.5L102 10.5L1.31134e-07 10.5L-1.31134e-07 13.5Z" />
	</symbol>

	<symbol id="prev" viewBox="0 0 104 24">
		<path
			d="M0.939339 13.0607C0.353554 12.4749 0.353554 11.5251 0.939339 10.9393L10.4853 1.39341C11.0711 0.80762 12.0208 0.80762 12.6066 1.39341C13.1924 1.97919 13.1924 2.92894 12.6066 3.51473L4.12132 12L12.6066 20.4853C13.1924 21.0711 13.1924 22.0208 12.6066 22.6066C12.0208 23.1924 11.0711 23.1924 10.4853 22.6066L0.939339 13.0607ZM104 13.5L2 13.5L2 10.5L104 10.5L104 13.5Z" />
	</symbol>

	<symbol id="next" viewBox="0 0 104 24">
		<path
			d="M103.061 13.0607C103.646 12.4749 103.646 11.5251 103.061 10.9393L93.5147 1.39341C92.9289 0.80762 91.9792 0.80762 91.3934 1.39341C90.8076 1.97919 90.8076 2.92894 91.3934 3.51473L99.8787 12L91.3934 20.4853C90.8076 21.0711 90.8076 22.0208 91.3934 22.6066C91.9792 23.1924 92.9289 23.1924 93.5147 22.6066L103.061 13.0607ZM-1.31134e-07 13.5L102 13.5L102 10.5L1.31134e-07 10.5L-1.31134e-07 13.5Z"/>
	</symbol>


	<symbol id="user" viewBox="0 0 42 42">
		<path
			d="M8.085 31.71C9.87 30.345 11.865 29.2684 14.07 28.4802C16.275 27.692 18.585 27.2986 21 27.3C23.415 27.3 25.725 27.6941 27.93 28.4823C30.135 29.2705 32.13 30.3464 33.915 31.71C35.14 30.275 36.0941 28.6475 36.7773 26.8275C37.4605 25.0075 37.8014 23.065 37.8 21C37.8 16.345 36.1641 12.3809 32.8923 9.1077C29.6205 5.8345 25.6564 4.1986 21 4.2C16.345 4.2 12.3809 5.8359 9.1077 9.1077C5.8345 12.3795 4.1986 16.3436 4.2 21C4.2 23.065 4.5416 25.0075 5.2248 26.8275C5.908 28.6475 6.8614 30.275 8.085 31.71ZM21 23.1C18.935 23.1 17.1934 22.3916 15.7752 20.9748C14.357 19.558 13.6486 17.8164 13.65 15.75C13.65 13.685 14.3584 11.9434 15.7752 10.5252C17.192 9.107 18.9336 8.3986 21 8.4C23.065 8.4 24.8066 9.1084 26.2248 10.5252C27.643 11.942 28.3514 13.6836 28.35 15.75C28.35 17.815 27.6416 19.5566 26.2248 20.9748C24.808 22.393 23.0664 23.1014 21 23.1ZM21 42C18.095 42 15.365 41.4484 12.81 40.3452C10.255 39.242 8.0325 37.7461 6.1425 35.8575C4.2525 33.9675 2.7566 31.745 1.6548 29.19C0.553 26.635 0.0014 23.905 0 21C0 18.095 0.5516 15.365 1.6548 12.81C2.758 10.255 4.2539 8.0325 6.1425 6.1425C8.0325 4.2525 10.255 2.7566 12.81 1.6548C15.365 0.553 18.095 0.0014 21 0C23.905 0 26.635 0.5516 29.19 1.6548C31.745 2.758 33.9675 4.2539 35.8575 6.1425C37.7475 8.0325 39.2441 10.255 40.3473 12.81C41.4505 15.365 42.0014 18.095 42 21C42 23.905 41.4484 26.635 40.3452 29.19C39.242 31.745 37.7461 33.9675 35.8575 35.8575C33.9675 37.7475 31.745 39.2441 29.19 40.3473C26.635 41.4505 23.905 42.0014 21 42Z" />
	</symbol>

	<symbol id="auction-icon" viewBox="0 0 23 25">
		<path
			d="M13.0992 22.248V24.5H0V22.248H13.0992ZM13.7378 0.5L22.2282 9.25819L20.6847 10.8504L19.5265 10.4529L16.8248 13.2398L23 19.6097L21.4565 21.2019L15.2813 14.832L12.6571 17.5378L12.966 18.8113L11.4214 20.4047L2.93094 11.6454L4.47447 10.0532L5.71016 10.3718L12.5796 3.28577L12.1943 2.09219L13.7378 0.5Z" />
	</symbol>

	<symbol id="exit-icon" viewBox="0 0 19 21">
		<path fill-rule="evenodd" clip-rule="evenodd"
			d="M9.25465 20.3304L0.407193 11.483C-0.135731 10.94 -0.135731 10.0598 0.407193 9.51686L9.25465 0.6694C9.79757 0.126476 10.6778 0.126476 11.2208 0.6694C11.7637 1.21232 11.7637 2.09258 11.2208 2.6355L4.74659 9.10966L19 9.10966V11.8902L4.74659 11.8902L11.2208 18.3643C11.7637 18.9072 11.7637 19.7875 11.2208 20.3304C10.6778 20.8733 9.79757 20.8733 9.25465 20.3304Z" />
	</symbol>


	<symbol id="arrow-link" viewBox="0 0 14 15">
		<path d="M10.5 2.65385H0V0.5H14V14.5H11.8462V4.35369L2.06146 14.1384L0.538463 12.6154L10.5 2.65385Z" />
	</symbol>

	<symbol id="arrow-right" viewBox="0 0 21 24">
		<path
			d="M20.0607 13.0607C20.6464 12.4749 20.6464 11.5251 20.0607 10.9393L10.5147 1.3934C9.92893 0.807611 8.97919 0.807611 8.3934 1.3934C7.80761 1.97919 7.80761 2.92893 8.3934 3.51472L16.8787 12L8.3934 20.4853C7.80761 21.0711 7.80761 22.0208 8.3934 22.6066C8.97919 23.1924 9.92893 23.1924 10.5147 22.6066L20.0607 13.0607ZM0 13.5L19 13.5V10.5L0 10.5L0 13.5Z" />
	</symbol>

	<symbol id="arrow-top" viewBox="0 0 19 18">
		<path fill-rule="evenodd" clip-rule="evenodd"
			d="M0.377852 8.7723L8.58778 0.562372C9.09159 0.0585705 9.90841 0.0585704 10.4122 0.562372L18.6221 8.7723C19.1259 9.27611 19.1259 10.0929 18.6221 10.5967C18.1183 11.1005 17.3015 11.1005 16.7977 10.5967L10.7901 4.58908L10.7901 17.8154L8.20993 17.8154L8.20993 4.58908L2.20228 10.5967C1.69848 11.1005 0.881654 11.1005 0.377852 10.5967C-0.125951 10.0929 -0.125951 9.27611 0.377852 8.7723Z" />
	</symbol>


	<symbol id="view" viewBox="0 0 26 19">
		<path
			d="M12.9541 12.9545C14.862 12.9545 16.4087 11.4079 16.4087 9.5C16.4087 7.59211 14.862 6.04545 12.9541 6.04545C11.0462 6.04545 9.49958 7.59211 9.49958 9.5C9.49958 11.4079 11.0462 12.9545 12.9541 12.9545Z" />
		<path
			d="M25.8569 9.20636C24.8411 6.57888 23.0777 4.30662 20.7846 2.67044C18.4915 1.03425 15.7692 0.105858 12.9542 0C10.1392 0.105858 7.41688 1.03425 5.12376 2.67044C2.83065 4.30662 1.06723 6.57888 0.0514508 9.20636C-0.0171503 9.39611 -0.0171503 9.60389 0.0514508 9.79364C1.06723 12.4211 2.83065 14.6934 5.12376 16.3296C7.41688 17.9657 10.1392 18.8941 12.9542 19C15.7692 18.8941 18.4915 17.9657 20.7846 16.3296C23.0777 14.6934 24.8411 12.4211 25.8569 9.79364C25.9255 9.60389 25.9255 9.39611 25.8569 9.20636ZM12.9542 15.1136C11.8439 15.1136 10.7586 14.7844 9.83541 14.1676C8.91225 13.5507 8.19274 12.674 7.76785 11.6482C7.34297 10.6225 7.2318 9.49377 7.44841 8.40483C7.66501 7.3159 8.19966 6.31564 8.98474 5.53056C9.76982 4.74548 10.7701 4.21083 11.859 3.99423C12.948 3.77763 14.0767 3.88879 15.1024 4.31368C16.1282 4.73856 17.0049 5.45807 17.6217 6.38123C18.2386 7.30439 18.5678 8.38973 18.5678 9.5C18.5655 10.9881 17.9734 12.4147 16.9211 13.4669C15.8688 14.5192 14.4423 15.1114 12.9542 15.1136Z" />
	</symbol>

	<symbol id="close" viewBox="0 0 38 38">
		<path fill-rule="evenodd" clip-rule="evenodd"
			d="M35.2543 19C35.2543 27.977 27.977 35.2543 19 35.2543C10.023 35.2543 2.74566 27.977 2.74566 19C2.74566 10.023 10.023 2.74566 19 2.74566C27.977 2.74566 35.2543 10.023 35.2543 19ZM38 19C38 29.4934 29.4934 38 19 38C8.50659 38 0 29.4934 0 19C0 8.50659 8.50659 0 19 0C29.4934 0 38 8.50659 38 19ZM11.3697 14.2998C10.5606 13.4907 10.5606 12.1789 11.3697 11.3698C12.1788 10.5607 13.4906 10.5607 14.2997 11.3698L18.9999 16.07L23.7001 11.3698C24.5092 10.5607 25.8209 10.5607 26.63 11.3698C27.4391 12.1789 27.4391 13.4907 26.63 14.2998L21.9299 19L26.63 23.7002C27.4391 24.5093 27.4391 25.821 26.63 26.6301C25.8209 27.4392 24.5092 27.4392 23.7001 26.6301L18.9999 21.93L14.2997 26.6301C13.4906 27.4392 12.1788 27.4392 11.3697 26.6301C10.5606 25.821 10.5606 24.5093 11.3697 23.7002L16.0699 19L11.3697 14.2998Z" />
	</symbol>

	<symbol id="arrow-bottom" viewBox="0 0 20 18">
		<path fill-rule="evenodd" clip-rule="evenodd"
			d="M19.1221 9.2277L10.9122 17.4376C10.4084 17.9414 9.59159 17.9414 9.08779 17.4376L0.877854 9.2277C0.374051 8.72389 0.37405 7.90707 0.877854 7.40327C1.38166 6.89946 2.19848 6.89946 2.70228 7.40327L8.70993 13.4109L8.70993 0.184571L11.2901 0.184571L11.2901 13.4109L17.2977 7.40327C17.8015 6.89946 18.6183 6.89946 19.1221 7.40327C19.626 7.90707 19.626 8.72389 19.1221 9.2277Z" />
	</symbol>

	<symbol id="edit" viewBox="0 0 19 20">
		<path
			d="M15.988 0.506104L18.988 3.5061L16.701 5.7941L13.701 2.7941L15.988 0.506104ZM5 14.4941H8L15.287 7.2071L12.287 4.2071L5 11.4941V14.4941Z" />
		<path
			d="M16 17.4941H5.158C5.132 17.4941 5.105 17.5041 5.079 17.5041C5.046 17.5041 5.013 17.4951 4.979 17.4941H2V3.49408H8.847L10.847 1.49408H2C0.897 1.49408 0 2.39008 0 3.49408V17.4941C0 18.5981 0.897 19.4941 2 19.4941H16C16.5304 19.4941 17.0391 19.2834 17.4142 18.9083C17.7893 18.5332 18 18.0245 18 17.4941V8.82608L16 10.8261V17.4941Z" />
	</symbol>

	<symbol id="update" viewBox="0 0 19 18">
		<path fill-rule="evenodd" clip-rule="evenodd"
			d="M1.44991 8.71753C1.44991 12.9532 4.52087 15.8391 7.97031 16.436C8.06415 16.4523 8.15386 16.4868 8.23432 16.5378C8.31479 16.5887 8.38443 16.655 8.43928 16.7328C8.49413 16.8107 8.53311 16.8986 8.55399 16.9915C8.57488 17.0844 8.57726 17.1805 8.56099 17.2743C8.54473 17.3682 8.51014 17.4579 8.45921 17.5384C8.40828 17.6188 8.34199 17.6885 8.26415 17.7433C8.1863 17.7982 8.09841 17.8371 8.00549 17.858C7.91258 17.8789 7.81647 17.8813 7.72263 17.865C3.67208 17.1637 0 13.7491 0 8.71753C0 6.57885 0.972634 4.89796 2.10807 3.62059C2.92208 2.70501 3.85297 1.96058 4.60158 1.39147H2.32514C2.14062 1.39147 1.96366 1.31817 1.83318 1.18769C1.70271 1.05721 1.62941 0.880253 1.62941 0.695733C1.62941 0.511213 1.70271 0.334251 1.83318 0.203776C1.96366 0.0733003 2.14062 0 2.32514 0H6.49954C6.68406 0 6.86102 0.0733003 6.99149 0.203776C7.12197 0.334251 7.19527 0.511213 7.19527 0.695733V4.87013C7.19527 5.05465 7.12197 5.23161 6.99149 5.36209C6.86102 5.49256 6.68406 5.56586 6.49954 5.56586C6.31502 5.56586 6.13805 5.49256 6.00758 5.36209C5.8771 5.23161 5.8038 5.05465 5.8038 4.87013V2.30148L5.80241 2.30427C5.00649 2.9026 4.03525 3.6359 3.19341 4.58349C2.19852 5.70223 1.44991 7.05612 1.44991 8.71753ZM16.9063 9.28247C16.9063 5.09137 13.9007 2.22356 10.4958 1.58349C10.4009 1.56739 10.3102 1.53255 10.2289 1.481C10.1476 1.42946 10.0774 1.36224 10.0223 1.28327C9.96731 1.2043 9.92854 1.11516 9.90832 1.02106C9.8881 0.926949 9.88682 0.829756 9.90456 0.735149C9.9223 0.640541 9.9587 0.550414 10.0116 0.470024C10.0646 0.389635 10.133 0.320593 10.2129 0.266927C10.2928 0.21326 10.3826 0.176045 10.4771 0.157451C10.5715 0.138857 10.6687 0.139257 10.763 0.158627C14.7621 0.910019 18.3562 4.30519 18.3562 9.28247C18.3562 11.4211 17.3836 13.1006 16.2481 14.3794C15.4341 15.295 14.5032 16.0394 13.7546 16.6085H16.0311C16.2156 16.6085 16.3926 16.6818 16.523 16.8123C16.6535 16.9428 16.7268 17.1197 16.7268 17.3043C16.7268 17.4888 16.6535 17.6657 16.523 17.7962C16.3926 17.9267 16.2156 18 16.0311 18H11.8567C11.6722 18 11.4952 17.9267 11.3647 17.7962C11.2342 17.6657 11.1609 17.4888 11.1609 17.3043V13.1299C11.1609 12.9454 11.2342 12.7684 11.3647 12.6379C11.4952 12.5074 11.6722 12.4341 11.8567 12.4341C12.0412 12.4341 12.2182 12.5074 12.3486 12.6379C12.4791 12.7684 12.5524 12.9454 12.5524 13.1299V15.6971H12.5552C13.3497 15.096 14.3224 14.3641 15.1628 13.4151C16.1577 12.2978 16.9063 10.9453 16.9063 9.28247Z" />
	</symbol>
	<symbol id="close-modal" viewBox="0 0 16 16">
		<path
			d="M1.24573 1.24598C0.536579 1.95513 0.536579 3.10489 1.24573 3.81404L5.36534 7.93365L1.24573 12.0533C0.536579 12.7624 0.536579 13.9122 1.24573 14.6213C1.95489 15.3305 3.10464 15.3305 3.8138 14.6213L7.9334 10.5017L12.053 14.6213C12.7622 15.3305 13.9119 15.3305 14.6211 14.6213C15.3302 13.9122 15.3302 12.7624 14.6211 12.0533L10.5015 7.93365L14.6211 3.81404C15.3302 3.10489 15.3302 1.95513 14.6211 1.24598C13.9119 0.536823 12.7622 0.536823 12.053 1.24598L7.9334 5.36558L3.8138 1.24598C3.10464 0.536823 1.95489 0.536823 1.24573 1.24598Z" />
	</symbol>

	<symbol id="right" viewBox="0 0 16 19">
		<path d="M0.5 0L15.7745 9.5L0.5 19V0Z" />
	</symbol>


</svg>